<svg width="11" height="10" viewBox="0 0 11 10" fill="none" xmlns="http://www.w3.org/2000/svg">
<path d="M6.6475 9.62483C6.54938 9.62827 6.45297 9.59846 6.37393 9.54022C6.29489 9.48197 6.23785 9.39873 6.21208 9.304L4.79124 5.01858L3.64541 7.95191C3.61658 8.03855 3.56123 8.11393 3.48721 8.1674C3.41318 8.22086 3.32422 8.2497 3.23291 8.24983C3.14414 8.25207 3.05649 8.22971 2.97964 8.18522C2.90279 8.14073 2.83975 8.07584 2.7975 7.99775L1.9725 6.32483L1.26208 7.17275C1.18257 7.26311 1.0707 7.31857 0.950637 7.32715C0.830576 7.33572 0.711961 7.29673 0.620412 7.21858C0.530046 7.13907 0.474585 7.0272 0.466009 6.90714C0.457434 6.78708 0.496431 6.66846 0.574579 6.57691L1.72041 5.20191C1.76647 5.14439 1.82637 5.0995 1.89451 5.07145C1.96265 5.04339 2.03679 5.03308 2.11 5.0415C2.18689 5.0509 2.26038 5.07873 2.32421 5.12262C2.38805 5.1665 2.44035 5.22515 2.47666 5.29358L3.16416 6.66858L4.37875 3.50608C4.41122 3.41509 4.47161 3.3367 4.5513 3.28208C4.63099 3.22747 4.72589 3.19943 4.82247 3.20197C4.91904 3.20451 5.01234 3.2375 5.08905 3.29623C5.16575 3.35496 5.22194 3.43643 5.24958 3.529L6.60166 7.56233L8.27458 1.26025C8.29502 1.16509 8.34676 1.07952 8.42153 1.01722C8.4963 0.954907 8.58979 0.919446 8.68708 0.916495C8.78818 0.911867 8.88797 0.940831 8.97088 0.998868C9.05379 1.05691 9.11516 1.14075 9.14541 1.23733L10.5204 5.36233C10.5453 5.47427 10.5274 5.5915 10.4701 5.69086C10.4129 5.79022 10.3204 5.8645 10.2111 5.89904C10.1017 5.93357 9.98336 5.92585 9.87941 5.8774C9.77546 5.82895 9.69345 5.74329 9.64958 5.63733L8.75583 2.979L7.08291 9.28108C7.06247 9.37624 7.01073 9.4618 6.93596 9.52411C6.86119 9.58642 6.7677 9.62188 6.67041 9.62483H6.6475Z" fill="black" fill-opacity="0.55"/>
</svg>
