<svg width="10" height="10" viewBox="0 0 10 10" fill="none" xmlns="http://www.w3.org/2000/svg">
<path fill-rule="evenodd" clip-rule="evenodd" d="M4.375 5.625H2.91667C2.57149 5.625 2.29167 5.34517 2.29167 5C2.29167 4.65483 2.57149 4.375 2.91667 4.375H4.375V2.91667C4.375 2.5715 4.65483 2.29167 5 2.29167C5.34517 2.29167 5.625 2.5715 5.625 2.91667V4.375H7.08333C7.4285 4.375 7.70833 4.65483 7.70833 5C7.70833 5.34517 7.4285 5.625 7.08333 5.625H5.625V7.08333C5.625 7.42851 5.34517 7.70833 5 7.70833C4.65483 7.70833 4.375 7.42851 4.375 7.08333V5.625ZM1.25 10H8.75C9.44037 10 10 9.44035 10 8.75V1.25C10 0.559626 9.44037 0 8.75 0H1.25C0.559646 0 0 0.559626 0 1.25V8.75C0 9.44035 0.559646 10 1.25 10Z" fill="black"/>
</svg>
