<svg width="9" height="7" viewBox="0 0 9 7" fill="none" xmlns="http://www.w3.org/2000/svg">
<path d="M8.07871 1.74325C8.08263 1.81948 8.08394 1.89509 8.08394 1.97194C8.0888 2.63346 7.95624 3.28932 7.69395 3.90139C7.43167 4.51347 7.0449 5.06957 6.55611 5.53738C6.06731 6.00519 5.48624 6.37538 4.84666 6.62645C4.20708 6.87751 3.52174 7.00445 2.83046 6.99988C1.82689 7.00052 0.844323 6.72484 0 6.20573C0.146277 6.22225 0.293436 6.2306 0.440728 6.23073C1.27226 6.23192 2.08008 5.96565 2.73447 5.47469C2.34908 5.46763 1.97563 5.3455 1.66634 5.12536C1.35704 4.90522 1.12737 4.59809 1.00943 4.24692C1.12368 4.26802 1.23977 4.27869 1.35614 4.27878C1.52066 4.27854 1.68444 4.25753 1.84322 4.2163C1.42547 4.13533 1.04979 3.91868 0.779804 3.60304C0.50982 3.28741 0.362124 2.89218 0.361724 2.48429V2.46117C0.617984 2.59796 0.904836 2.67381 1.19813 2.68236C0.807108 2.4326 0.530363 2.04952 0.424324 1.61123C0.318285 1.17294 0.390937 0.712454 0.627467 0.323659C1.09097 0.86953 1.6693 1.31597 2.3249 1.63396C2.98049 1.95195 3.69866 2.13437 4.43275 2.16938C4.36963 1.91008 4.36852 1.64049 4.4295 1.38071C4.49047 1.12094 4.61196 0.877701 4.7849 0.669139C4.95784 0.460576 5.17776 0.292077 5.42825 0.176214C5.67875 0.0603512 5.95335 0.000115244 6.23157 6.89798e-07C6.48415 -0.000212945 6.73408 0.0491985 6.96589 0.145175C7.19771 0.241152 7.40646 0.381649 7.57922 0.557967C7.99281 0.480201 8.38943 0.33523 8.75189 0.129339C8.61406 0.538626 8.32536 0.885963 7.93964 1.10656C8.30564 1.06516 8.66307 0.971432 9 0.828514C8.75248 1.18345 8.44071 1.49323 8.07937 1.74325H8.07871Z" fill="white"/>
</svg>
