<svg width="9" height="9" viewBox="0 0 9 9" fill="none" xmlns="http://www.w3.org/2000/svg">
<path fill-rule="evenodd" clip-rule="evenodd" d="M7.245 3.68182H8.34545C8.70545 3.68182 9 3.97636 9 4.33636V4.66364C9 5.02364 8.70545 5.31818 8.34545 5.31818H7.245C7.18773 5.51045 7.11409 5.69045 7.02 5.86227L7.79727 6.63955C8.05091 6.89318 8.05091 7.31045 7.79727 7.56409L7.56409 7.79727C7.31045 8.05091 6.89318 8.05091 6.63955 7.79727L5.86227 7.02C5.69045 7.11409 5.51045 7.18773 5.31818 7.245V8.34545C5.31818 8.70545 5.02364 9 4.66364 9H4.33636C3.97636 9 3.68182 8.70545 3.68182 8.34545V7.245C3.49297 7.18955 3.31058 7.11412 3.13773 7.02L2.36045 7.79727C2.10682 8.05091 1.68955 8.05091 1.43591 7.79727L1.20273 7.56409C0.949091 7.31045 0.949091 6.89318 1.20273 6.63955L1.98 5.86227C1.88588 5.68942 1.81045 5.50703 1.755 5.31818H0.654545C0.294545 5.31818 0 5.02364 0 4.66364V4.33636C0 3.97636 0.294545 3.68182 0.654545 3.68182H1.755C1.81227 3.48955 1.88591 3.30955 1.98 3.13773L1.20273 2.36045C0.949091 2.10682 0.949091 1.68955 1.20273 1.43591L1.43591 1.20273C1.68955 0.949091 2.10682 0.949091 2.36045 1.20273L3.13773 1.98C3.30955 1.88591 3.48955 1.81227 3.68182 1.755V0.654545C3.68182 0.294545 3.97636 0 4.33636 0H4.66364C5.02364 0 5.31818 0.294545 5.31818 0.654545V1.755C5.51045 1.81227 5.69045 1.88591 5.86227 1.98L6.63955 1.20273C6.89318 0.949091 7.31045 0.949091 7.56409 1.20273L7.79727 1.43591C8.05091 1.68955 8.05091 2.10682 7.79727 2.36045L7.02 3.13773C7.11409 3.30955 7.18773 3.48955 7.245 3.68182ZM6.13636 4.5C6.13636 4.93399 5.96396 5.35021 5.65708 5.65708C5.35021 5.96396 4.93399 6.13636 4.5 6.13636C4.06601 6.13636 3.64979 5.96396 3.34292 5.65708C3.03604 5.35021 2.86364 4.93399 2.86364 4.5C2.86364 4.06601 3.03604 3.64979 3.34292 3.34292C3.64979 3.03604 4.06601 2.86364 4.5 2.86364C4.93399 2.86364 5.35021 3.03604 5.65708 3.34292C5.96396 3.64979 6.13636 4.06601 6.13636 4.5Z" fill="white"/>
</svg>
