<svg width="22" height="17" viewBox="0 0 22 17" fill="none" xmlns="http://www.w3.org/2000/svg">
<path d="M21.2143 14.5714H0.785714C0.57733 14.5714 0.37748 14.6354 0.23013 14.7493C0.0827804 14.8631 0 15.0175 0 15.1786L0 16.3929C0 16.5539 0.0827804 16.7083 0.23013 16.8222C0.37748 16.936 0.57733 17 0.785714 17H21.2143C21.4227 17 21.6225 16.936 21.7699 16.8222C21.9172 16.7083 22 16.5539 22 16.3929V15.1786C22 15.0175 21.9172 14.8631 21.7699 14.7493C21.6225 14.6354 21.4227 14.5714 21.2143 14.5714ZM21.2143 9.71429H0.785714C0.57733 9.71429 0.37748 9.77825 0.23013 9.89211C0.0827804 10.006 0 10.1604 0 10.3214L0 11.5357C0 11.6967 0.0827804 11.8512 0.23013 11.965C0.37748 12.0789 0.57733 12.1429 0.785714 12.1429H21.2143C21.4227 12.1429 21.6225 12.0789 21.7699 11.965C21.9172 11.8512 22 11.6967 22 11.5357V10.3214C22 10.1604 21.9172 10.006 21.7699 9.89211C21.6225 9.77825 21.4227 9.71429 21.2143 9.71429ZM21.2143 4.85714H11H0.785714C0.57733 4.85714 0.37748 4.92111 0.23013 5.03497C0.0827804 5.14883 0 5.30326 0 5.46429L0 6.67857C0 6.8396 0.0827804 6.99403 0.23013 7.10789C0.37748 7.22175 0.57733 7.28571 0.785714 7.28571H21.2143C21.4227 7.28571 21.6225 7.22175 21.7699 7.10789C21.9172 6.99403 22 6.8396 22 6.67857V5.46429C22 5.30326 21.9172 5.14883 21.7699 5.03497C21.6225 4.92111 21.4227 4.85714 21.2143 4.85714ZM21.2143 0H0.785714C0.57733 0 0.37748 0.0639666 0.23013 0.177828C0.0827804 0.291689 0 0.446119 0 0.607143L0 1.82143C0 1.98245 0.0827804 2.13688 0.23013 2.25074C0.37748 2.3646 0.57733 2.42857 0.785714 2.42857H21.2143C21.4227 2.42857 21.6225 2.3646 21.7699 2.25074C21.9172 2.13688 22 1.98245 22 1.82143V0.607143C22 0.446119 21.9172 0.291689 21.7699 0.177828C21.6225 0.0639666 21.4227 0 21.2143 0Z" fill="#F6ECEC"/>
</svg>
