<svg width="8" height="8" viewBox="0 0 8 8" fill="none" xmlns="http://www.w3.org/2000/svg">
<path fill-rule="evenodd" clip-rule="evenodd" d="M6.5 1.97883e-08H5.5V1H6.5V1.97883e-08ZM7.5 1.97883e-08H7V1.5H5V1.97883e-08H3V1.5H1V1.97883e-08H0.5C0.434334 -1.84566e-05 0.369308 0.0129018 0.308637 0.0380226C0.247965 0.0631434 0.192838 0.0999724 0.146405 0.146405C0.0999725 0.192838 0.0631435 0.247965 0.0380227 0.308636C0.0129019 0.369308 -1.83881e-05 0.434334 8.82477e-08 0.5V7.5C-3.89392e-05 7.56567 0.0128673 7.63071 0.0379808 7.69139C0.0630944 7.75207 0.0999226 7.8072 0.14636 7.85364C0.192797 7.90008 0.247932 7.93691 0.308612 7.96202C0.369293 7.98713 0.434328 8.00004 0.5 8H7.5C7.56567 8.00004 7.63071 7.98713 7.69139 7.96202C7.75207 7.93691 7.8072 7.90008 7.85364 7.85364C7.90008 7.8072 7.93691 7.75207 7.96202 7.69139C7.98713 7.63071 8.00004 7.56567 8 7.5V0.5C8.00002 0.434334 7.9871 0.369308 7.96198 0.308636C7.93686 0.247965 7.90003 0.192838 7.85359 0.146405C7.80716 0.0999724 7.75204 0.0631434 7.69136 0.0380226C7.63069 0.0129018 7.56567 -1.84566e-05 7.5 1.97883e-08ZM7 7H1V2.5H7V7ZM2.5 1.97883e-08H1.5V1H2.5V1.97883e-08ZM4.5 3.5H3.5V4.5H4.5V3.5ZM6 3.5H5V4.5H6V3.5ZM3 5H2V6H3V5ZM3 3.5H2V4.5H3V3.5ZM4.5 5H3.5V6H4.5V5ZM6 5H5V6H6V5Z" fill="black" fill-opacity="0.55"/>
</svg>
