<svg width="17" height="17" viewBox="0 0 17 17" fill="none" xmlns="http://www.w3.org/2000/svg">
<path d="M8.31406 4.52954C10.4003 4.52954 12.0974 6.22621 12.0974 8.31235C12.0974 10.3985 10.4003 12.0952 8.31406 12.0952C6.22842 12.0952 4.53125 10.3985 4.53125 8.31235C4.53125 6.22621 6.22842 4.52954 8.31406 4.52954Z" fill="#F6ECEC"/>
<path d="M8.31234 0C12.8962 0 16.6247 3.72908 16.6247 8.31234C16.6247 12.8956 12.8962 16.6247 8.31234 16.6247C3.72908 16.6247 0 12.8956 0 8.31234C0 3.72908 3.72908 0 8.31234 0ZM15.4822 8.31234C15.4822 4.3588 12.2659 1.14246 8.31234 1.14246C4.35936 1.14246 1.14302 4.3588 1.14302 8.31234C1.14302 12.2659 4.35936 15.4822 8.31234 15.4822C12.2659 15.4822 15.4822 12.2659 15.4822 8.31234Z" fill="#F6ECEC"/>
<path d="M8.31199 3.38672C11.0279 3.38672 13.2378 5.59662 13.2378 8.31255C13.2378 11.0285 11.0279 13.2384 8.31199 13.2384C5.59601 13.2384 3.38672 11.0285 3.38672 8.31255C3.38672 5.59662 5.59601 3.38672 8.31199 3.38672ZM12.0954 8.31255C12.0954 6.22635 10.3982 4.52973 8.31199 4.52973C6.22635 4.52973 4.52918 6.2264 4.52918 8.31255C4.52918 10.3987 6.22635 12.0954 8.31199 12.0954C10.3982 12.0954 12.0954 10.3987 12.0954 8.31255Z" fill="#F6ECEC"/>
</svg>
