<svg width="115" height="126" viewBox="0 0 115 126" fill="none" xmlns="http://www.w3.org/2000/svg">
<path d="M79.6388 67.0749L69.6857 58.5973L92.2872 32.0621C95.4079 28.3982 94.9665 22.8969 91.3035 19.7769C87.6425 16.6586 82.1391 17.0964 79.0183 20.7603L56.4134 47.2995L46.4623 38.8235C42.7983 35.7027 37.3022 36.1398 34.1814 39.8038L28.5306 46.4381L74.9687 85.9919L80.6195 79.3576C83.7403 75.6937 83.3029 70.1958 79.6388 67.0749Z" fill="black"/>
<path d="M2.99811e-05 79.9344L53.2896 125.324C52.613 117.121 55.328 109.438 60.263 103.644L70.6207 91.4836L23.9917 51.7671L2.99811e-05 79.9344Z" fill="black"/>
</svg>
