<svg width="11" height="12" viewBox="0 0 11 12" fill="none" xmlns="http://www.w3.org/2000/svg">
<path d="M1.58889 0C1.16749 0 0.763349 0.164357 0.465375 0.456913C0.1674 0.74947 0 1.14626 0 1.56V4.44C0 4.64486 0.0410978 4.84772 0.120947 5.03699C0.200796 5.22625 0.317833 5.39823 0.465375 5.54309C0.763349 5.83564 1.16749 6 1.58889 6H3.3C3.7214 6 4.12554 5.83564 4.42351 5.54309C4.72149 5.25053 4.88889 4.85374 4.88889 4.44V1.56C4.88889 1.14626 4.72149 0.74947 4.42351 0.456913C4.12554 0.164357 3.7214 0 3.3 0H1.58889ZM1.58889 7.2C1.16749 7.2 0.763349 7.36436 0.465375 7.65691C0.1674 7.94947 0 8.34626 0 8.76V10.44C0 10.8537 0.1674 11.2505 0.465375 11.5431C0.763349 11.8356 1.16749 12 1.58889 12H3.3C3.7214 12 4.12554 11.8356 4.42351 11.5431C4.72149 11.2505 4.88889 10.8537 4.88889 10.44V8.76C4.88889 8.34626 4.72149 7.94947 4.42351 7.65691C4.12554 7.36436 3.7214 7.2 3.3 7.2H1.58889ZM7.7 0C7.2786 0 6.87446 0.164357 6.57649 0.456913C6.27851 0.74947 6.11111 1.14626 6.11111 1.56V3.24C6.11111 3.65374 6.27851 4.05053 6.57649 4.34309C6.87446 4.63564 7.2786 4.8 7.7 4.8H9.41111C9.61977 4.8 9.82638 4.75965 10.0192 4.68125C10.2119 4.60285 10.3871 4.48795 10.5346 4.34309C10.6822 4.19823 10.7992 4.02625 10.8791 3.83699C10.9589 3.64772 11 3.44486 11 3.24V1.56C11 1.35514 10.9589 1.15228 10.8791 0.963014C10.7992 0.773746 10.6822 0.601773 10.5346 0.456913C10.3871 0.312054 10.2119 0.197145 10.0192 0.118748C9.82638 0.0403506 9.61977 0 9.41111 0H7.7ZM7.7 6C7.2786 6 6.87446 6.16436 6.57649 6.45691C6.27851 6.74947 6.11111 7.14626 6.11111 7.56V10.44C6.11111 10.8537 6.27851 11.2505 6.57649 11.5431C6.87446 11.8356 7.2786 12 7.7 12H9.41111C9.61977 12 9.82638 11.9596 10.0192 11.8813C10.2119 11.8029 10.3871 11.6879 10.5346 11.5431C10.6822 11.3982 10.7992 11.2263 10.8791 11.037C10.9589 10.8477 11 10.6449 11 10.44V7.56C11 7.35514 10.9589 7.15228 10.8791 6.96301C10.7992 6.77375 10.6822 6.60177 10.5346 6.45691C10.3871 6.31205 10.2119 6.19715 10.0192 6.11875C9.82638 6.04035 9.61977 6 9.41111 6H7.7Z" fill="black" fill-opacity="0.55"/>
</svg>
