<svg width="23" height="23" viewBox="0 0 23 23" fill="none" xmlns="http://www.w3.org/2000/svg">
<path d="M16.2932 14.375H14.375V16.2932H16.2932V14.375ZM16.2932 10.5432H14.375V12.4613H16.2932V10.5432ZM16.2932 6.70684H14.375V8.625H16.2932V6.70684ZM12.4568 10.5432H10.5387V12.4613H12.4568V10.5432ZM12.4568 6.70684H10.5387V8.625H12.4568V6.70684ZM12.4568 14.375H10.5387V16.2932H12.4568V14.375ZM20.125 6.70684H18.2068V8.625H20.125V6.70684ZM20.125 10.5432H18.2068V12.4613H20.125V10.5432ZM20.125 14.375H18.2068V16.2932H20.125V14.375ZM4.79316 18.2068H2.875V20.125H4.79316V18.2068ZM4.79316 14.375H2.875V16.2932H4.79316V14.375ZM12.4568 18.2068H10.5387V20.125H12.4568V18.2068ZM8.625 18.2068H6.70684V20.125H8.625V18.2068ZM0 0V23H23V0H0ZM21.0818 21.0818H1.91816V5.75H21.0863V21.0818H21.0818ZM4.79316 10.5432H2.875V12.4613H4.79316V10.5432ZM8.625 14.375H6.70684V16.2932H8.625V14.375ZM8.625 6.70684H6.70684V8.625H8.625V6.70684ZM8.625 10.5432H6.70684V12.4613H8.625V10.5432ZM16.2932 18.2068H14.375V20.125H16.2932V18.2068Z" fill="#DF0053"/>
</svg>
