<svg width="12" height="9" viewBox="0 0 12 9" fill="none" xmlns="http://www.w3.org/2000/svg">
<path d="M10.1585 0.746051C9.39364 0.400736 8.57349 0.146326 7.71594 0.000610564C7.70034 -0.00219944 7.68474 0.00482559 7.67669 0.0188856C7.57119 0.203486 7.45434 0.444311 7.37254 0.633596C6.45019 0.497726 5.53259 0.497726 4.62915 0.633596C4.54732 0.440101 4.42623 0.203486 4.32028 0.0188856C4.31224 0.00529559 4.29663 -0.00172944 4.28102 0.000610564C3.42395 0.145861 2.60378 0.400271 1.83846 0.746051C1.83184 0.748861 1.82616 0.753551 1.82239 0.759641C0.266696 3.04656 -0.159475 5.27725 0.0495899 7.4803C0.0505359 7.4911 0.0566849 7.5014 0.0651989 7.50795C1.0916 8.24965 2.08585 8.6999 3.06164 8.99835C3.07725 9.00305 3.0938 8.99745 3.10374 8.98475C3.33456 8.6746 3.54032 8.3476 3.71674 8.00365C3.72715 7.9835 3.71721 7.9596 3.69593 7.95165C3.36956 7.82985 3.0588 7.6813 2.75986 7.51265C2.73622 7.49905 2.73432 7.4658 2.75608 7.44985C2.81898 7.40345 2.88191 7.3552 2.94198 7.3065C2.95284 7.2976 2.96799 7.2957 2.98076 7.3013C4.94463 8.1836 7.07074 8.1836 9.01149 7.3013C9.02424 7.29525 9.03939 7.2971 9.05074 7.306C9.11079 7.35475 9.17374 7.40345 9.23709 7.44985C9.25884 7.4658 9.25744 7.49905 9.23379 7.51265C8.93484 7.6846 8.62409 7.82985 8.29724 7.9512C8.27599 7.95915 8.26649 7.9835 8.27689 8.00365C8.45714 8.3471 8.66289 8.67415 8.88944 8.9843C8.89889 8.99745 8.91594 9.00305 8.93154 8.99835C9.91204 8.6999 10.9063 8.24965 11.9327 7.50795C11.9417 7.5014 11.9474 7.49155 11.9483 7.4808C12.1985 4.9338 11.5292 2.7214 10.1741 0.760106C10.1708 0.753551 10.1651 0.748861 10.1585 0.746051ZM4.01 6.1389C3.41875 6.1389 2.93156 5.60475 2.93156 4.9488C2.93156 4.29285 3.4093 3.75875 4.01 3.75875C4.61543 3.75875 5.09789 4.29755 5.08844 4.9488C5.08844 5.60475 4.6107 6.1389 4.01 6.1389ZM7.99734 6.1389C7.40614 6.1389 6.91894 5.60475 6.91894 4.9488C6.91894 4.29285 7.39664 3.75875 7.99734 3.75875C8.60279 3.75875 9.08524 4.29755 9.07579 4.9488C9.07579 5.60475 8.60279 6.1389 7.99734 6.1389Z" fill="black" fill-opacity="0.55"/>
</svg>
