<svg width="11" height="11" viewBox="0 0 11 11" fill="none" xmlns="http://www.w3.org/2000/svg">
<path d="M9.31805 1.93774C8.606 1.60459 7.84464 1.36247 7.04866 1.22461C6.95091 1.40135 6.8367 1.63906 6.75796 1.82817C5.91181 1.70092 5.07345 1.70092 4.24286 1.82817C4.16414 1.63906 4.04734 1.40135 3.94871 1.22461C3.15187 1.36247 2.38964 1.60548 1.67759 1.93951C0.241378 4.10981 -0.147955 6.22621 0.0467118 8.31255C0.999282 9.02391 1.92244 9.45603 2.83001 9.73881C3.0541 9.4304 3.25395 9.10256 3.42612 8.75704C3.09822 8.63245 2.78416 8.47869 2.48741 8.30019C2.56613 8.24186 2.64314 8.18088 2.71754 8.11814C4.52751 8.96471 6.49408 8.96471 8.28242 8.11814C8.35769 8.18088 8.43469 8.24186 8.51255 8.30019C8.21493 8.47956 7.90001 8.63332 7.57211 8.75793C7.74427 9.10256 7.94327 9.43129 8.16821 9.73968C9.07666 9.45691 10.0007 9.0248 10.9532 8.31255C11.1817 5.89395 10.5631 3.79699 9.31805 1.93774ZM3.67271 7.02947C3.12937 7.02947 2.68379 6.52223 2.68379 5.90455C2.68379 5.28686 3.11986 4.77875 3.67271 4.77875C4.22557 4.77875 4.67113 5.28597 4.66162 5.90455C4.66248 6.52223 4.22557 7.02947 3.67271 7.02947ZM7.32726 7.02947C6.78392 7.02947 6.33835 6.52223 6.33835 5.90455C6.33835 5.28686 6.77439 4.77875 7.32726 4.77875C7.8801 4.77875 8.32568 5.28597 8.31617 5.90455C8.31617 6.52223 7.8801 7.02947 7.32726 7.02947Z" fill="#DF0053"/>
</svg>
