<svg width="8" height="11" viewBox="0 0 8 11" fill="none" xmlns="http://www.w3.org/2000/svg">
<path d="M0 11L0.28743 10.934C0.377036 10.9138 0.465776 10.895 0.555381 10.8763C0.693036 10.8478 0.831124 10.8199 0.968779 10.7928C1.07267 10.7718 1.17656 10.7539 1.28088 10.7337L1.30469 10.7268C1.41291 10.7067 1.52026 10.6856 1.62805 10.6718L2.15356 10.5898V0H2.13538C1.86267 0.00183326 1.59169 0.00733303 1.31984 0.0164993C1.02159 0.024749 0.716411 0.0439982 0.417726 0.0646223C0.288296 0.0742469 0.158 0.0857048 0.0285699 0.0967043H0.00909038V10.9972L0 11ZM2.66306 0.00733303V10.522C3.03577 10.4761 3.40761 10.4386 3.78075 10.4092C4.69888 10.3354 5.61961 10.3125 6.53947 10.34C7.02776 10.3556 7.51474 10.3854 8 10.428V0.689305C7.56539 0.584351 7.12905 0.491313 6.68925 0.411108C5.83735 0.254364 4.97722 0.144827 4.11493 0.0760802C3.6327 0.0389567 3.14831 0.0155827 2.66393 0.00779134H2.66306V0.00733303ZM7.32211 6.78901L7.3022 6.78718L7.05936 6.75922C6.45376 6.6923 5.84514 6.64831 5.23825 6.62585C4.62919 6.60523 4.0197 6.6121 3.41021 6.63318H3.39116C3.37168 6.63318 3.35177 6.63318 3.33272 6.62585C3.289 6.6121 3.24831 6.59193 3.21714 6.55756C3.16217 6.49523 3.13663 6.41319 3.14961 6.33069C3.15308 6.30274 3.16217 6.28257 3.17299 6.25461C3.18468 6.23445 3.20026 6.20695 3.21801 6.1932C3.23662 6.17258 3.25697 6.15883 3.27991 6.14554C3.30631 6.13179 3.33229 6.12445 3.35783 6.11758H3.39679C3.4812 6.11758 3.56604 6.11025 3.64353 6.11025C4.24739 6.09695 4.84389 6.09695 5.44819 6.124C6.0711 6.15149 6.68795 6.19962 7.30437 6.27524L7.36973 6.28211C7.38878 6.28945 7.40826 6.28945 7.42817 6.29586C7.47362 6.31695 7.51215 6.34399 7.53855 6.37882C7.5576 6.39898 7.57059 6.42648 7.584 6.45398C7.59656 6.48194 7.60305 6.50898 7.60305 6.53648C7.60955 6.6121 7.58401 6.68772 7.53206 6.74272C7.51215 6.7638 7.49267 6.77709 7.47362 6.79084C7.45328 6.80459 7.42817 6.81101 7.40176 6.81834C7.38878 6.82567 7.38228 6.82567 7.36324 6.82567H7.34289L7.32211 6.78901ZM7.33727 5.54652C7.31822 5.54652 7.31822 5.54652 7.29831 5.54377L7.05806 5.51123C6.4542 5.42919 5.84427 5.37373 5.24084 5.34669C4.63698 5.31232 4.02662 5.30545 3.4167 5.3192L3.39679 5.31186C3.37731 5.30499 3.35783 5.30499 3.33835 5.29857C3.29939 5.28482 3.25437 5.25732 3.2284 5.22249C3.21541 5.20187 3.1955 5.17483 3.18944 5.15466C3.15697 5.07858 3.15697 4.98921 3.1955 4.91405C3.20892 4.88609 3.2219 4.86592 3.24095 4.8453C3.26 4.82467 3.27991 4.80405 3.30588 4.79763C3.33229 4.78388 3.35739 4.77013 3.3838 4.77013L3.42276 4.7628L3.67599 4.75593C4.28029 4.74859 4.87679 4.7628 5.47373 4.79717C6.09664 4.83155 6.71392 4.89342 7.33034 4.97592L7.39484 4.98325L7.43423 4.98967C7.47968 5.00387 7.51821 5.02404 7.55111 5.06575C7.60305 5.12029 7.62902 5.19591 7.62253 5.27153C7.62253 5.29949 7.61561 5.32699 7.60305 5.34715C7.5905 5.37465 7.57665 5.39482 7.56409 5.4159C7.55111 5.43607 7.53206 5.45027 7.50522 5.4709C7.48618 5.48419 7.4602 5.49152 7.43423 5.49885L7.39484 5.50527H7.37666L7.33727 5.54652ZM7.33727 4.30403C7.31822 4.30403 7.31822 4.30403 7.29831 4.30128L7.05806 4.26461C6.4542 4.17753 5.85077 4.11154 5.24084 4.06846C4.63698 4.02629 4.02662 4.00658 3.4167 4.00933H3.39679L3.35783 4.002C3.33229 3.99467 3.31281 3.9855 3.28684 3.97083C3.2219 3.92867 3.17602 3.85442 3.16347 3.77009C3.16347 3.74214 3.16347 3.7151 3.17039 3.6876C3.17645 3.65964 3.18295 3.63397 3.19593 3.60968C3.20935 3.58493 3.22883 3.56293 3.24831 3.54369C3.28034 3.50931 3.32623 3.48594 3.37168 3.47494C3.39116 3.4699 3.41021 3.46806 3.43012 3.46806H3.67642C4.29933 3.47219 4.92268 3.4974 5.53953 3.54689C6.14339 3.59502 6.74033 3.66606 7.33727 3.75634L7.4022 3.76597C7.42211 3.76918 7.4286 3.76918 7.44116 3.77468C7.46713 3.78384 7.4931 3.79576 7.51258 3.81134C7.53899 3.82647 7.5576 3.84571 7.57102 3.86771C7.58444 3.88971 7.59742 3.914 7.60998 3.94013C7.63682 4.01162 7.62946 4.0932 7.59742 4.15966C7.58487 4.18487 7.57102 4.20778 7.55197 4.22657C7.51951 4.26049 7.48098 4.28478 7.4351 4.29532C7.42254 4.30082 7.41518 4.30082 7.3957 4.30174L7.37666 4.30403H7.33727ZM7.33727 3.06108C7.31822 3.06108 7.31822 3.06108 7.29831 3.05787L7.05806 3.01662C6.4542 2.9135 5.85077 2.83742 5.24084 2.7893C4.63698 2.73476 4.02662 2.70726 3.4167 2.69351H3.39679L3.35133 2.6871C3.32493 2.68022 3.30155 2.66647 3.27991 2.65318C3.25697 2.63897 3.23705 2.61835 3.21931 2.59772C3.20372 2.5771 3.18987 2.55006 3.17862 2.52944C3.16996 2.50194 3.1626 2.47444 3.15957 2.44648C3.15264 2.36398 3.18251 2.27645 3.23792 2.22007C3.26995 2.1857 3.31411 2.16278 3.35869 2.15133C3.37817 2.14445 3.39765 2.14445 3.41713 2.14445C3.49894 2.14445 3.58162 2.14674 3.66387 2.14812C4.28592 2.1637 4.90666 2.19991 5.52697 2.26086C6.12737 2.3154 6.72604 2.39836 7.32125 2.50102L7.37969 2.50835C7.397 2.50835 7.4022 2.50835 7.41865 2.51477C7.44548 2.5221 7.46713 2.53585 7.49007 2.5496C7.50998 2.56289 7.52903 2.58352 7.54418 2.60414C7.58357 2.66601 7.60262 2.74209 7.58963 2.81726C7.58314 2.84521 7.57621 2.86538 7.56323 2.89334C7.55024 2.91396 7.53119 2.941 7.51128 2.95521C7.47925 2.98913 7.43986 3.00975 7.39397 3.0235H7.33553L7.33727 3.06108ZM0.554083 2.8278C0.515124 2.8278 0.475732 2.81817 0.436773 2.79892C0.352795 2.75539 0.300849 2.66464 0.294356 2.56748C0.294356 2.54135 0.30085 2.5166 0.307343 2.49185C0.313403 2.46069 0.326822 2.4309 0.346302 2.40477C0.365781 2.37498 0.391321 2.34978 0.417293 2.33053C0.450625 2.30761 0.489584 2.2957 0.521617 2.28836L0.729398 2.2682C1.01466 2.24161 1.2943 2.22007 1.57308 2.2022H1.59905C1.6445 2.20403 1.68346 2.2132 1.71636 2.23474C1.80034 2.28195 1.85228 2.37453 1.85228 2.47261C1.85228 2.49781 1.84579 2.52256 1.83973 2.54639C1.8328 2.5771 1.82025 2.60689 1.80034 2.63302C1.78129 2.66739 1.75532 2.68801 1.72891 2.70864C1.69688 2.72926 1.66398 2.74255 1.62502 2.74989C1.58 2.75676 1.53455 2.75676 1.4891 2.76363C1.43023 2.77051 1.36529 2.77051 1.30036 2.77784L0.794762 2.81817L0.671392 2.83238C0.644987 2.83926 0.618581 2.83926 0.586548 2.83926L0.554083 2.8278ZM7.33077 1.81905L7.29138 1.81447L7.05157 1.76863C6.4477 1.66139 5.83735 1.57385 5.22742 1.51015C4.62356 1.4469 4.01364 1.40702 3.40328 1.38594H3.3838L3.34484 1.37769C3.31844 1.37082 3.29939 1.36028 3.27342 1.34515C3.25394 1.3314 3.23402 1.31215 3.21498 1.2897C3.16303 1.22645 3.14355 1.13845 3.16303 1.05779C3.16996 1.02983 3.18251 1.00279 3.19507 0.975293C3.20848 0.947336 3.22796 0.92717 3.24744 0.906546C3.27948 0.871714 3.32536 0.85109 3.37081 0.837798C3.39029 0.830924 3.40934 0.830924 3.42925 0.830924L3.68205 0.837798C4.28592 0.865756 4.88285 0.906546 5.48022 0.975751C6.10313 1.04358 6.71998 1.14029 7.3364 1.25074L7.40133 1.25716C7.42124 1.25716 7.42774 1.25716 7.44029 1.26449C7.46626 1.27136 7.49224 1.28511 7.51171 1.2984C7.57015 1.34653 7.60911 1.41573 7.61517 1.49135C7.6221 1.51885 7.61517 1.54635 7.60868 1.57431C7.60868 1.60135 7.59613 1.62885 7.58314 1.64947C7.56972 1.6701 7.5563 1.69072 7.53769 1.71135C7.50479 1.74618 7.45934 1.76634 7.41388 1.77322L7.37666 1.77963H7.35674L7.33077 1.81905ZM0.546724 1.46661C0.509496 1.46661 0.472702 1.4579 0.438504 1.44094C0.408203 1.42582 0.380499 1.40473 0.357556 1.37815C0.338077 1.35386 0.320329 1.32682 0.309507 1.2952C0.300849 1.27274 0.294789 1.24891 0.292625 1.2237C0.283102 1.12562 0.326389 1.028 0.403009 0.973459C0.436773 0.94871 0.475299 0.934044 0.515557 0.928086C0.583951 0.92167 0.65148 0.92167 0.720307 0.914795C1.00168 0.894171 1.28348 0.880422 1.56398 0.866672H1.58476C1.62415 0.874005 1.66311 0.880422 1.69558 0.901046C1.77306 0.949169 1.82544 1.04541 1.82544 1.1412C1.82544 1.16916 1.81852 1.19666 1.81246 1.21728C1.79947 1.2512 1.78648 1.27916 1.76744 1.30665C1.74709 1.33415 1.72112 1.36165 1.68865 1.3754C1.65619 1.39603 1.61723 1.40977 1.57827 1.40977C1.53325 1.41619 1.48737 1.41619 1.43542 1.41619L1.24106 1.4304C1.06574 1.44369 0.896921 1.45102 0.727666 1.46431L0.597803 1.47165C0.565337 1.47852 0.539798 1.47852 0.513825 1.47852L0.546724 1.46661Z" fill="black" fill-opacity="0.55"/>
</svg>
