<svg width="9" height="7" viewBox="0 0 9 7" fill="none" xmlns="http://www.w3.org/2000/svg">
<path fill-rule="evenodd" clip-rule="evenodd" d="M0 0.552632C0 0.406065 0.0592632 0.2655 0.164752 0.161862C0.270242 0.0582234 0.413316 0 0.5625 0H0.9375C1.08668 0 1.22976 0.0582234 1.33525 0.161862C1.44074 0.2655 1.5 0.406065 1.5 0.552632C1.5 0.699199 1.44074 0.839763 1.33525 0.943401C1.22976 1.04704 1.08668 1.10526 0.9375 1.10526H0.5625C0.413316 1.10526 0.270242 1.04704 0.164752 0.943401C0.0592632 0.839763 0 0.699199 0 0.552632ZM3 0.552632C3 0.406065 3.05926 0.2655 3.16475 0.161862C3.27024 0.0582234 3.41332 0 3.5625 0H8.4375C8.58668 0 8.72976 0.0582234 8.83525 0.161862C8.94074 0.2655 9 0.406065 9 0.552632C9 0.699199 8.94074 0.839763 8.83525 0.943401C8.72976 1.04704 8.58668 1.10526 8.4375 1.10526H3.5625C3.41332 1.10526 3.27024 1.04704 3.16475 0.943401C3.05926 0.839763 3 0.699199 3 0.552632ZM0 3.5C0 3.35343 0.0592632 3.21287 0.164752 3.10923C0.270242 3.00559 0.413316 2.94737 0.5625 2.94737H0.9375C1.08668 2.94737 1.22976 3.00559 1.33525 3.10923C1.44074 3.21287 1.5 3.35343 1.5 3.5C1.5 3.64657 1.44074 3.78713 1.33525 3.89077C1.22976 3.99441 1.08668 4.05263 0.9375 4.05263H0.5625C0.413316 4.05263 0.270242 3.99441 0.164752 3.89077C0.0592632 3.78713 0 3.64657 0 3.5ZM3 3.5C3 3.35343 3.05926 3.21287 3.16475 3.10923C3.27024 3.00559 3.41332 2.94737 3.5625 2.94737H8.4375C8.58668 2.94737 8.72976 3.00559 8.83525 3.10923C8.94074 3.21287 9 3.35343 9 3.5C9 3.64657 8.94074 3.78713 8.83525 3.89077C8.72976 3.99441 8.58668 4.05263 8.4375 4.05263H3.5625C3.41332 4.05263 3.27024 3.99441 3.16475 3.89077C3.05926 3.78713 3 3.64657 3 3.5ZM0 6.44737C0 6.3008 0.0592632 6.16024 0.164752 6.0566C0.270242 5.95296 0.413316 5.89474 0.5625 5.89474H0.9375C1.08668 5.89474 1.22976 5.95296 1.33525 6.0566C1.44074 6.16024 1.5 6.3008 1.5 6.44737C1.5 6.59394 1.44074 6.7345 1.33525 6.83814C1.22976 6.94178 1.08668 7 0.9375 7H0.5625C0.413316 7 0.270242 6.94178 0.164752 6.83814C0.0592632 6.7345 0 6.59394 0 6.44737ZM3 6.44737C3 6.3008 3.05926 6.16024 3.16475 6.0566C3.27024 5.95296 3.41332 5.89474 3.5625 5.89474H8.4375C8.58668 5.89474 8.72976 5.95296 8.83525 6.0566C8.94074 6.16024 9 6.3008 9 6.44737C9 6.59394 8.94074 6.7345 8.83525 6.83814C8.72976 6.94178 8.58668 7 8.4375 7H3.5625C3.41332 7 3.27024 6.94178 3.16475 6.83814C3.05926 6.7345 3 6.59394 3 6.44737Z" fill="black" fill-opacity="0.55"/>
</svg>
