<svg width="9" height="8" viewBox="0 0 9 8" fill="none" xmlns="http://www.w3.org/2000/svg">
<path d="M8.7795 4.11228L7.79091 1.73487C7.66097 1.35491 7.38788 1.04131 7.03575 0.859063C6.98147 0.445344 6.63159 0.125 6.20325 0.125C5.73722 0.125 5.3595 0.502719 5.3595 0.96875C5.3595 0.988156 5.36287 1.00644 5.36513 1.025C5.00962 1.3085 4.78125 1.74444 4.78125 2.23438C4.78125 2.29766 4.78125 2.37247 4.78125 2.45291C4.69828 2.40481 4.60294 2.375 4.5 2.375C4.39706 2.375 4.30172 2.40481 4.21875 2.45291C4.21875 2.37247 4.21875 2.29766 4.21875 2.23438C4.21875 1.75091 3.99684 1.31975 3.6495 1.03597C3.65147 1.01347 3.65625 0.991813 3.65625 0.96875C3.65625 0.502719 3.27853 0.125 2.8125 0.125C2.38641 0.125 2.03794 0.441688 1.98056 0.852031C1.62084 1.03288 1.34072 1.349 1.20909 1.73487L0.2205 4.11228C0.0807187 4.39409 0 4.71078 0 5.04688C0 6.21181 0.944437 7.15625 2.10938 7.15625C3.07716 7.15625 3.89053 6.50375 4.13888 5.61556C4.23703 5.69825 4.36191 5.75 4.5 5.75C4.63809 5.75 4.76297 5.69825 4.86112 5.61556C5.10947 6.50375 5.92284 7.15625 6.89062 7.15625C8.05556 7.15625 9 6.21181 9 5.04688C9 4.71078 8.91928 4.39409 8.7795 4.11228ZM2.8125 0.40625C3.08222 0.40625 3.30666 0.597219 3.36094 0.850906C3.15337 0.747406 2.91994 0.6875 2.67188 0.6875C2.54447 0.6875 2.42269 0.707469 2.30428 0.736437C2.39231 0.542375 2.58553 0.40625 2.8125 0.40625ZM2.10938 6.875C1.10137 6.875 0.28125 6.05487 0.28125 5.04688C0.28125 4.81316 0.331031 4.57634 0.429188 4.34263L0.475031 4.23238C0.775406 3.63247 1.39416 3.21875 2.10938 3.21875C3.11738 3.21875 3.9375 4.03887 3.9375 5.04688C3.9375 6.05487 3.11738 6.875 2.10938 6.875ZM3.9375 3.99753C3.57328 3.36472 2.89181 2.9375 2.10938 2.9375C1.62928 2.9375 1.18828 3.09978 0.833906 3.36978L1.46869 1.84288L1.47234 1.83444L1.47516 1.82572C1.65038 1.313 2.13103 0.96875 2.67188 0.96875C3.36966 0.96875 3.9375 1.53659 3.9375 2.23438V3.99753ZM4.5 5.46875C4.34503 5.46875 4.21875 5.34247 4.21875 5.1875C4.21875 5.03253 4.34503 4.90625 4.5 4.90625C4.65497 4.90625 4.78125 5.03253 4.78125 5.1875C4.78125 5.34247 4.65497 5.46875 4.5 5.46875ZM4.78125 4.70291C4.69828 4.65481 4.60294 4.625 4.5 4.625C4.39706 4.625 4.30172 4.65481 4.21875 4.70291C4.21875 4.19131 4.21875 3.49887 4.21875 2.9375C4.21875 2.78253 4.34503 2.65625 4.5 2.65625C4.65497 2.65625 4.78125 2.78253 4.78125 2.9375C4.78125 3.49887 4.78125 4.19131 4.78125 4.70291ZM6.20325 0.40625C6.43247 0.40625 6.62934 0.544625 6.71681 0.741781C6.59222 0.709156 6.46313 0.6875 6.32812 0.6875C6.08709 0.6875 5.85956 0.744313 5.65622 0.84275C5.71359 0.593281 5.93634 0.40625 6.20325 0.40625ZM5.0625 2.23438C5.0625 1.53659 5.63034 0.96875 6.32812 0.96875C6.86897 0.96875 7.34962 1.313 7.52484 1.82572L7.52766 1.83444L7.53131 1.84288L8.16609 3.36978C7.81172 3.09978 7.37072 2.9375 6.89062 2.9375C6.10819 2.9375 5.42672 3.36472 5.0625 3.99753V2.23438ZM6.89062 6.875C5.88263 6.875 5.0625 6.05487 5.0625 5.04688C5.0625 4.03887 5.88263 3.21875 6.89062 3.21875C7.60584 3.21875 8.22459 3.63247 8.52497 4.23238L8.57109 4.34375C8.66897 4.57634 8.71875 4.81316 8.71875 5.04688C8.71875 6.05487 7.89862 6.875 6.89062 6.875ZM2.10938 3.5C1.25494 3.5 0.5625 4.19244 0.5625 5.04688C0.5625 5.90131 1.25494 6.59375 2.10938 6.59375C2.96381 6.59375 3.65625 5.90131 3.65625 5.04688C3.65625 4.19244 2.96381 3.5 2.10938 3.5ZM2.10938 6.3125C1.41159 6.3125 0.84375 5.74466 0.84375 5.04688C0.84375 4.34909 1.41159 3.78125 2.10938 3.78125C2.80716 3.78125 3.375 4.34909 3.375 5.04688C3.375 5.74466 2.80716 6.3125 2.10938 6.3125ZM6.89062 3.5C6.03619 3.5 5.34375 4.19244 5.34375 5.04688C5.34375 5.90131 6.03619 6.59375 6.89062 6.59375C7.74506 6.59375 8.4375 5.90131 8.4375 5.04688C8.4375 4.19244 7.74506 3.5 6.89062 3.5ZM6.89062 6.3125C6.19284 6.3125 5.625 5.74466 5.625 5.04688C5.625 4.34909 6.19284 3.78125 6.89062 3.78125C7.58841 3.78125 8.15625 4.34909 8.15625 5.04688C8.15625 5.74466 7.58841 6.3125 6.89062 6.3125Z" fill="black" fill-opacity="0.55"/>
</svg>
