<svg width="15" height="15" viewBox="0 0 15 15" fill="none" xmlns="http://www.w3.org/2000/svg">
<path d="M10.1656 2.89402C8.57077 2.89402 7.2536 1.87499 5.24845 1.87499C4.50574 1.87499 3.84045 2.00343 3.2233 2.22693C3.30883 2.00705 3.34523 1.77161 3.33003 1.53664C3.27729 0.703555 2.58351 0.0353217 1.73625 0.00139593C0.784077 -0.0367486 0 0.711787 0 1.64062C0 2.19802 0.282649 2.69018 0.714286 2.98666V14.2969C0.714286 14.6852 1.03408 15 1.42857 15H1.90476C2.29926 15 2.61905 14.6852 2.61905 14.2969V11.5312C3.46164 11.1778 4.51137 10.8831 6.02485 10.8831C7.61973 10.8831 8.93688 11.9022 10.942 11.9022C12.3756 11.9022 13.5214 11.4248 14.588 10.7052C14.8464 10.5308 15 10.2413 15 9.93296V2.81088C15 2.12554 14.2777 1.67211 13.6463 1.9608C12.6243 2.42803 11.3709 2.89402 10.1656 2.89402Z" fill="#7E3E3E" fill-opacity="0.49"/>
</svg>
