<svg width="11" height="11" viewBox="0 0 11 11" fill="none" xmlns="http://www.w3.org/2000/svg">
<g clip-path="url(#clip0_203_1745)">
<path d="M4.95 0C2.2165 0 0 2.2165 0 4.95C0 7.6835 2.2165 9.9 4.95 9.9C7.6835 9.9 9.9 7.6835 9.9 4.95C9.9 2.2165 7.6835 0 4.95 0ZM0.6105 5.324H1.991C2.013 5.8245 2.08285 6.3217 2.2 6.809H1.012C0.79035 6.3415 0.6545 5.8388 0.6105 5.324ZM5.324 2.354V0.6545C5.8542 0.8558 6.2898 1.2485 6.545 1.7545C6.65775 1.94535 6.7573 2.1439 6.842 2.3485L5.324 2.354ZM7.095 3.0965C7.2226 3.58215 7.2985 4.0799 7.3205 4.5815H5.324V3.0965H7.095ZM4.576 0.6545V2.354H3.058C3.1427 2.1494 3.24225 1.95085 3.355 1.76C3.6091 1.2518 4.04525 0.858 4.576 0.6545ZM4.576 3.0965V4.5815H2.585C2.607 4.0799 2.6829 3.58215 2.8105 3.0965H4.576ZM1.991 4.576H0.6105C0.6545 4.0612 0.79035 3.5585 1.012 3.091H2.2C2.08285 3.5783 2.013 4.0755 1.991 4.576ZM2.585 5.324H4.576V6.809H2.8105C2.6829 6.32335 2.607 5.8256 2.585 5.324ZM4.5815 7.524V9.2235C4.0513 9.0222 3.6157 8.6295 3.3605 8.1235C3.24775 7.93265 3.1482 7.7341 3.0635 7.5295L4.5815 7.524ZM5.324 9.2235V7.5515H6.842C6.7573 7.7561 6.65775 7.95465 6.545 8.1455C6.2898 8.6515 5.8542 9.0442 5.324 9.2455V9.2235ZM5.324 6.7815V5.2965H7.315C7.293 5.7981 7.2171 6.29585 7.0895 6.7815H5.324ZM7.9145 5.2965H9.295C9.251 5.8113 9.11515 6.314 8.8935 6.7815H7.7C7.8155 6.303 7.88535 5.81515 7.909 5.324L7.9145 5.2965ZM7.9145 4.554C7.8892 4.0623 7.8177 3.575 7.7 3.0965H8.888C9.10965 3.564 9.2455 4.0667 9.2895 4.5815L7.9145 4.554ZM8.4645 2.354H7.48C7.3018 1.8535 7.04385 1.386 6.7155 0.968C7.3997 1.276 7.99425 1.7523 8.4425 2.354H8.4645ZM3.1845 0.968C2.85615 1.386 2.5982 1.8535 2.42 2.354H1.4575C1.90575 1.7523 2.5003 1.276 3.1845 0.968ZM1.452 7.568H2.42C2.5982 8.0685 2.85615 8.536 3.1845 8.954C2.4981 8.64215 1.903 8.15925 1.4575 7.5515L1.452 7.568ZM6.71 8.954C7.03835 8.536 7.2963 8.0685 7.4745 7.568H8.4425C7.9915 8.162 7.3975 8.63115 6.7155 8.932L6.71 8.954Z" fill="#DF0053"/>
</g>
<defs>
<clipPath id="clip0_203_1745">
<rect width="11" height="11" fill="white"/>
</clipPath>
</defs>
</svg>
