<svg width="210" height="210" viewBox="0 0 210 210" fill="none" xmlns="http://www.w3.org/2000/svg">
<rect width="210" height="210" fill="#2F0076"/>
<path d="M69.036 99.056L69.556 99.316C73.2653 92.972 77.8067 89.8 83.18 89.8C87.3747 89.8 89.472 91.8973 89.472 96.092C89.472 97.8947 88.952 100.945 87.912 105.244C86.9067 109.543 86.404 112.784 86.404 114.968C86.404 117.152 86.768 118.747 87.496 119.752C85.6587 121.451 83.7173 122.3 81.672 122.3C77.6853 122.3 75.692 120.151 75.692 115.852C75.692 114.257 76.212 111.553 77.252 107.74C78.292 103.927 78.812 101.448 78.812 100.304C78.812 98.744 78.2227 97.964 77.044 97.964C76.0733 97.964 74.9813 98.3973 73.768 99.264C72.5893 100.096 71.4453 101.24 70.336 102.696C69.2613 104.117 68.3427 105.937 67.58 108.156C66.852 110.34 66.488 112.576 66.488 114.864C66.488 117.117 66.852 118.747 67.58 119.752C65.7427 121.451 63.8013 122.3 61.756 122.3C57.7693 122.3 55.776 120.151 55.776 115.852C55.776 114.257 56.296 111.553 57.336 107.74C58.376 103.927 58.896 101.448 58.896 100.304C58.896 98.744 58.3067 97.964 57.128 97.964C56.1573 97.964 55.0653 98.3973 53.852 99.264C52.6733 100.096 51.5293 101.24 50.42 102.696C49.3453 104.117 48.4267 105.937 47.664 108.156C46.936 110.34 46.572 112.576 46.572 114.864C46.572 117.117 46.936 118.747 47.664 119.752C45.8267 121.451 43.8853 122.3 41.84 122.3C37.8533 122.3 35.86 120.151 35.86 115.852C35.86 114.465 36.2067 111.779 36.9 107.792C37.628 103.805 38.3733 100.165 39.136 96.872L36.432 92.712C39.864 90.7707 43.036 89.8 45.948 89.8C48.86 89.8 50.316 91.1173 50.316 93.752C50.316 95.4853 49.9173 97.2533 49.12 99.056L49.64 99.316C53.3493 92.972 57.8907 89.8 63.264 89.8C65.2053 89.8 66.7307 90.2853 67.84 91.256C68.984 92.2267 69.556 93.6827 69.556 95.624C69.556 96.664 69.3827 97.808 69.036 99.056ZM111.461 81.584C111.461 82.9013 110.767 84.0453 109.381 85.016C107.994 85.952 106.417 86.42 104.649 86.42C102.881 86.42 101.477 86.0733 100.437 85.38C99.4314 84.6867 98.9287 83.7507 98.9287 82.572C98.9287 80.9773 99.674 79.7293 101.165 78.828C102.655 77.9267 104.233 77.476 105.897 77.476C107.561 77.476 108.895 77.8227 109.901 78.516C110.941 79.2093 111.461 80.232 111.461 81.584ZM101.321 122.3C99.1714 122.3 97.6114 121.763 96.6407 120.688C95.67 119.613 95.1847 117.984 95.1847 115.8C95.1847 113.581 96.294 107.671 98.5127 98.068L95.6007 93.7C99.934 91.1 103.349 89.8 105.845 89.8C107.266 89.8 108.271 90.112 108.861 90.736C109.45 91.3253 109.745 92.296 109.745 93.648C109.745 94.168 109.103 97.2187 107.821 102.8C106.538 108.381 105.897 112.368 105.897 114.76C105.897 117.152 106.434 118.816 107.509 119.752C105.567 121.451 103.505 122.3 101.321 122.3ZM120.805 122.3C118.76 122.3 117.252 121.763 116.281 120.688C115.31 119.613 114.825 118.192 114.825 116.424C114.825 114.656 115.172 111.779 115.865 107.792C116.593 103.805 117.338 100.165 118.101 96.872L115.397 92.712C118.829 90.7707 122.001 89.8 124.913 89.8C127.825 89.8 129.281 91.1173 129.281 93.752C129.281 95.4853 128.882 97.2533 128.085 99.056L128.605 99.316C132.314 92.972 137.029 89.8 142.749 89.8C146.944 89.8 149.041 91.8973 149.041 96.092C149.041 97.8947 148.521 100.945 147.481 105.244C146.476 109.543 145.973 112.784 145.973 114.968C145.973 117.152 146.337 118.747 147.065 119.752C145.228 121.451 143.286 122.3 141.241 122.3C137.254 122.3 135.261 120.151 135.261 115.852C135.261 114.257 135.781 111.553 136.821 107.74C137.861 103.927 138.381 101.448 138.381 100.304C138.381 98.744 137.792 97.964 136.613 97.964C135.642 97.964 134.533 98.3973 133.285 99.264C132.037 100.096 130.824 101.24 129.645 102.696C128.501 104.117 127.53 105.937 126.733 108.156C125.936 110.34 125.537 112.576 125.537 114.864C125.537 117.117 125.901 118.747 126.629 119.752C124.792 121.451 122.85 122.3 120.805 122.3ZM154.855 102.228C154.612 101.257 154.491 100.356 154.491 99.524C154.491 97.8253 154.994 96.5427 155.999 95.676C157.004 94.8093 158.304 94.376 159.899 94.376C159.899 92.5733 159.431 90.6147 158.495 88.5C160.194 87.252 161.736 86.316 163.123 85.692C164.544 85.0333 166.035 84.704 167.595 84.704C169.155 84.704 170.23 84.9987 170.819 85.588C171.443 86.1427 171.755 87.0093 171.755 88.188C171.755 89.3667 171.512 91.204 171.027 93.7C172.414 93.492 173.818 93.1973 175.239 92.816C175.482 93.544 175.603 94.48 175.603 95.624C175.603 96.768 175.152 97.8427 174.251 98.848C173.384 99.8187 172.102 100.304 170.403 100.304H169.623C168.375 105.955 167.751 110.305 167.751 113.356C167.751 116.407 168.288 118.539 169.363 119.752C167.422 121.451 165.359 122.3 163.175 122.3C160.991 122.3 159.414 121.659 158.443 120.376C157.507 119.059 157.039 117.031 157.039 114.292C157.039 112.628 157.646 108.26 158.859 101.188C157.472 101.431 156.138 101.777 154.855 102.228Z" fill="white"/>
<rect x="97" y="76" width="16" height="11" fill="#2F0076"/>
<path d="M109.955 66.8158C110.086 66.8199 110.165 66.7333 110.19 66.6115C110.587 64.7741 110.577 64.7292 112.472 64.4105C112.604 64.3924 112.682 64.328 112.686 64.1945C112.691 64.0497 112.617 63.9805 112.487 63.9541C110.616 63.5045 110.628 63.4715 110.349 61.6126C110.331 61.4894 110.258 61.398 110.127 61.3938C109.997 61.3896 109.929 61.4766 109.903 61.5984C109.496 63.4355 109.517 63.4696 107.61 63.799C107.49 63.8175 107.4 63.8815 107.396 64.0263C107.392 64.1598 107.476 64.2295 107.596 64.2555C109.489 64.6946 109.454 64.7381 109.744 66.5973C109.762 66.7205 109.824 66.8116 109.955 66.8158ZM114.93 74.5077C115.126 74.5139 115.272 74.3737 115.301 74.1628C115.755 71.1905 115.899 71.1059 118.864 70.7321C119.105 70.6952 119.25 70.5883 119.257 70.3657C119.264 70.1542 119.127 70.016 118.932 69.9764C115.978 69.303 115.814 69.3201 115.55 66.325C115.535 66.1127 115.398 65.9635 115.202 65.9573C114.995 65.9507 114.849 66.0909 114.821 66.2906C114.344 69.2956 114.243 69.3927 111.214 69.7311C111.017 69.7471 110.871 69.8874 110.864 70.0989C110.857 70.3104 110.995 70.4374 111.19 70.4882C114.187 71.1518 114.295 71.1664 114.571 74.1619C114.586 74.3519 114.723 74.5011 114.93 74.5077ZM106.406 84.5454C110.346 84.6707 113.557 82.7333 115.168 79.352C115.367 78.946 115.345 78.5886 115.155 78.3931C114.987 78.2206 114.682 78.1886 114.341 78.3004C113.448 78.6286 112.408 78.7739 111.222 78.7362C106.279 78.5791 103.223 75.3168 103.38 70.3847C103.424 68.982 103.728 67.6431 104.088 66.9636C104.285 66.5798 104.296 66.2458 104.139 66.0291C103.95 65.8002 103.603 65.7557 103.173 65.9092C99.7885 67.1501 97.4306 70.7083 97.3011 74.7831C97.1288 80.205 100.908 84.3707 106.406 84.5454Z" fill="#CB5CFF"/>
</svg>
