<svg width="18" height="21" viewBox="0 0 18 21" fill="none" xmlns="http://www.w3.org/2000/svg">
<path d="M16.7142 4.59285C16.007 4.59285 15.4284 5.18336 15.4284 5.9051V8.85765C15.4284 9.03808 15.2838 9.18571 15.107 9.18571H14.4641C14.2873 9.18571 14.1426 9.03808 14.1426 8.85765V2.62449C14.1426 1.90275 13.564 1.31224 12.8568 1.31224C12.1497 1.31224 11.5711 1.90275 11.5711 2.62449V8.85765C11.5711 9.03808 11.4264 9.18571 11.2496 9.18571H10.6067C10.4299 9.18571 10.2853 9.03808 10.2853 8.85765V1.31224C10.2853 0.59051 9.70666 0 8.99947 0C8.29229 0 7.71368 0.59051 7.71368 1.31224V8.85765C7.71368 9.03808 7.56903 9.18571 7.39224 9.18571H6.74934C6.57255 9.18571 6.42789 9.03808 6.42789 8.85765V2.62449C6.42789 1.90275 5.84929 1.31224 5.1421 1.31224C4.43492 1.31224 3.85631 1.90275 3.85631 2.62449V12.5073L2.90804 11.1746C2.38569 10.4405 1.38117 10.2806 0.661931 10.8137C-0.0573081 11.3468 -0.214014 12.372 0.308338 13.106L5.35506 20.1881C5.71669 20.6965 6.29931 21 6.91408 21H14.8538C15.7499 21 16.5254 20.3726 16.7303 19.4827L17.7951 14.8612C17.9237 14.2994 17.992 13.7006 18 13.1265V5.9051C18 5.18336 17.4214 4.59285 16.7142 4.59285ZM7.07079 17.0592C6.7172 17.0592 6.42789 16.7639 6.42789 16.403C6.42789 16.0422 6.7172 15.7469 7.07079 15.7469C7.42438 15.7469 7.71368 16.0422 7.71368 16.403C7.71368 16.7639 7.42438 17.0592 7.07079 17.0592ZM7.07079 13.1224C6.7172 13.1224 6.42789 12.8272 6.42789 12.4663C6.42789 12.1054 6.7172 11.8102 7.07079 11.8102C7.42438 11.8102 7.71368 12.1054 7.71368 12.4663C7.71368 12.8272 7.42438 13.1224 7.07079 13.1224ZM9.64237 18.3714C9.28878 18.3714 8.99947 18.0762 8.99947 17.7153C8.99947 17.3544 9.28878 17.0592 9.64237 17.0592C9.99596 17.0592 10.2853 17.3544 10.2853 17.7153C10.2853 18.0762 9.99596 18.3714 9.64237 18.3714ZM9.64237 14.4347C9.28878 14.4347 8.99947 14.1394 8.99947 13.7786C8.99947 13.4177 9.28878 13.1224 9.64237 13.1224C9.99596 13.1224 10.2853 13.4177 10.2853 13.7786C10.2853 14.1394 9.99596 14.4347 9.64237 14.4347ZM12.2139 15.7469C11.8604 15.7469 11.5711 15.4517 11.5711 15.0908C11.5711 14.7299 11.8604 14.4347 12.2139 14.4347C12.5675 14.4347 12.8568 14.7299 12.8568 15.0908C12.8568 15.4517 12.5675 15.7469 12.2139 15.7469ZM13.4997 18.3714C13.1461 18.3714 12.8568 18.0762 12.8568 17.7153C12.8568 17.3544 13.1461 17.0592 13.4997 17.0592C13.8533 17.0592 14.1426 17.3544 14.1426 17.7153C14.1426 18.0762 13.8533 18.3714 13.4997 18.3714ZM14.7855 13.1224C14.4319 13.1224 14.1426 12.8272 14.1426 12.4663C14.1426 12.1054 14.4319 11.8102 14.7855 11.8102C15.1391 11.8102 15.4284 12.1054 15.4284 12.4663C15.4284 12.8272 15.1391 13.1224 14.7855 13.1224Z" fill="#DF0053"/>
</svg>
