<svg width="205" height="55" viewBox="0 0 205 55" fill="none" xmlns="http://www.w3.org/2000/svg">
<path d="M10.912 36.16H12.608V32H11.008C10.56 32.64 10.336 33.3333 10.336 34.08C10.336 34.8267 10.528 35.52 10.912 36.16ZM10.4 39.36H8.928C7.37067 37.9307 6.592 36.1813 6.592 34.112C6.592 32.0213 7.456 30.272 9.184 28.864H10.4C11.488 28.864 12.3307 29.1093 12.928 29.6L13.088 28.864H16.288V36.288H16.96C17.5787 35.648 18.0053 35.008 18.24 34.368C18.4747 33.728 18.592 32.8747 18.592 31.808C18.592 30.7413 18.4107 29.8667 18.048 29.184C17.6853 28.48 17.12 27.7547 16.352 27.008H8.32C5.76 28.736 4.48 31.04 4.48 33.92C4.48 36.288 5.152 38.1227 6.496 39.424C7.136 40.0427 7.872 40.608 8.704 41.12H16.032V44.48H7.552C5.376 43.3493 3.70133 41.9733 2.528 40.352C1.376 38.7307 0.8 36.5867 0.8 33.92C0.8 29.8453 2.93333 26.4213 7.2 23.648H17.824C20.7893 25.8667 22.272 28.544 22.272 31.68C22.272 33.3013 21.9733 34.6667 21.376 35.776C20.8 36.864 19.8613 38.0587 18.56 39.36H13.536L13.12 38.528C12.8 38.8907 12.448 39.1253 12.064 39.232C11.7013 39.3173 11.1467 39.36 10.4 39.36ZM35.2538 40H28.4698C26.9338 38.592 25.8138 36.9173 25.1098 34.976C24.4058 33.0347 24.0538 31.008 24.0538 28.896C24.0538 26.7627 24.4804 24.6613 25.3338 22.592C26.1871 20.5227 27.3818 18.8587 28.9178 17.6H36.6938V21.44H30.7418C30.1871 22.08 29.7071 23.0933 29.3018 24.48C28.8964 25.8453 28.6938 27.3067 28.6938 28.864C28.6938 30.4 28.8751 31.872 29.2378 33.28C29.6218 34.6667 30.0911 35.6693 30.6458 36.288H33.7178V27.584H37.9418V32.96C37.9418 35.904 37.0458 38.2507 35.2538 40ZM50.8743 17.6C52.3676 18.816 53.4769 20.448 54.2023 22.496C54.9276 24.544 55.2903 26.656 55.2903 28.832C55.2903 30.9867 54.9383 33.0347 54.2343 34.976C53.5303 36.9173 52.4103 38.592 50.8743 40H44.2823C42.7463 38.592 41.6263 36.9173 40.9223 34.976C40.2183 33.0347 39.8663 30.9867 39.8663 28.832C39.8663 26.656 40.2289 24.544 40.9543 22.496C41.6796 20.448 42.7889 18.816 44.2823 17.6H50.8743ZM46.4263 36.288H48.7303C49.2636 35.6693 49.7116 34.6667 50.0743 33.28C50.4583 31.872 50.6503 30.3893 50.6503 28.832C50.6503 27.2747 50.4689 25.8133 50.1063 24.448C49.7436 23.0613 49.2956 22.0587 48.7623 21.44H46.4263C45.8929 22.0587 45.4343 23.0613 45.0503 24.448C44.6876 25.8133 44.5063 27.2747 44.5063 28.832C44.5063 30.3893 44.6876 31.872 45.0503 33.28C45.4343 34.6667 45.8929 35.6693 46.4263 36.288ZM68.218 17.6C69.7113 18.816 70.8207 20.448 71.546 22.496C72.2713 24.544 72.634 26.656 72.634 28.832C72.634 30.9867 72.282 33.0347 71.578 34.976C70.874 36.9173 69.754 38.592 68.218 40H61.626C60.09 38.592 58.97 36.9173 58.266 34.976C57.562 33.0347 57.21 30.9867 57.21 28.832C57.21 26.656 57.5727 24.544 58.298 22.496C59.0233 20.448 60.1327 18.816 61.626 17.6H68.218ZM63.77 36.288H66.074C66.6073 35.6693 67.0553 34.6667 67.418 33.28C67.802 31.872 67.994 30.3893 67.994 28.832C67.994 27.2747 67.8127 25.8133 67.45 24.448C67.0873 23.0613 66.6393 22.0587 66.106 21.44H63.77C63.2367 22.0587 62.778 23.0613 62.394 24.448C62.0313 25.8133 61.85 27.2747 61.85 28.832C61.85 30.3893 62.0313 31.872 62.394 33.28C62.778 34.6667 63.2367 35.6693 63.77 36.288ZM79.4818 36.288H82.3618C82.9591 35.5413 83.4284 34.4533 83.7698 33.024C84.1324 31.5947 84.3138 30.176 84.3138 28.768C84.3138 25.4187 83.6844 22.976 82.4258 21.44H79.4818V36.288ZM75.1298 40V17.6H84.4098C87.4391 20.288 88.9538 23.936 88.9538 28.544C88.9538 33.1307 87.5351 36.9493 84.6978 40H75.1298ZM99.2898 29.76H99.1618H99.2898L100.986 22.752L102.362 17.6H106.362L107.802 40H103.61L103.002 27.776H102.842L100.538 36.8H97.9138L95.6098 27.776H95.4498L94.8418 40H90.6497L92.0898 17.6H96.0898L97.4658 22.752L99.1618 29.76H99.2898ZM110.38 40V17.6H114.764V40H110.38ZM127.833 40L121.849 27.616L121.689 27.68L121.881 31.456V40H117.849V17.6H121.081L126.969 30.464L127.129 30.4L126.777 26.464V17.6H130.809V40H127.833ZM137.496 21.44H132.664V17.6H146.68V21.44H141.848V40H137.496V21.44ZM152.765 36.8L159.133 21.664L159.037 21.44H153.437V17.6H160.349C162.205 18.3893 163.133 19.648 163.133 21.376C163.133 22.3147 162.898 23.3813 162.429 24.576C162.301 24.9387 162.194 25.2373 162.109 25.472C162.024 25.7067 161.885 26.048 161.693 26.496C161.501 26.9227 161.362 27.2427 161.277 27.456C160.914 28.288 160.573 29.056 160.253 29.76L157.373 36.288H162.973V40H152.765V36.8ZM174.819 40H168.707C167.278 38.5707 166.243 36.8853 165.603 34.944C164.984 33.0027 164.675 31.0613 164.675 29.12C164.675 24.1493 166.019 20.3093 168.707 17.6H174.819C176.227 19.0293 177.251 20.7147 177.891 22.656C178.531 24.576 178.851 26.496 178.851 28.416C178.851 33.4507 177.507 37.312 174.819 40ZM173.155 21.44H170.403C169.464 23.36 168.995 25.8027 168.995 28.768C168.995 31.7333 169.454 34.24 170.371 36.288H173.187C174.104 33.9413 174.563 31.36 174.563 28.544C174.563 25.728 174.094 23.36 173.155 21.44ZM180.296 36.8L186.664 21.664L186.568 21.44H180.968V17.6H187.88C189.736 18.3893 190.664 19.648 190.664 21.376C190.664 22.3147 190.43 23.3813 189.96 24.576C189.832 24.9387 189.726 25.2373 189.64 25.472C189.555 25.7067 189.416 26.048 189.224 26.496C189.032 26.9227 188.894 27.2427 188.808 27.456C188.446 28.288 188.104 29.056 187.784 29.76L184.904 36.288H190.504V40H180.296V36.8ZM198.766 26.848V27.008C201.689 27.9253 203.15 29.92 203.15 32.992C203.15 34.5493 202.734 35.9467 201.902 37.184C201.092 38.4213 200.185 39.36 199.182 40H191.886V36.288H197.39C197.646 36.0533 197.934 35.584 198.254 34.88C198.574 34.176 198.734 33.4613 198.734 32.736C198.734 31.392 198.254 30.4 197.294 29.76H194.702V26.272L198.574 21.792L198.414 21.44H192.014V17.6H199.726C201.54 18.368 202.446 19.584 202.446 21.248C202.446 22.528 201.86 23.7547 200.686 24.928L198.766 26.848Z" fill="#FFFEFF"/>
</svg>
