<svg width="149" height="21" viewBox="0 0 149 21" fill="none" xmlns="http://www.w3.org/2000/svg">
<path d="M84.9197 0.801758L78.27 20.506H70.2513L63.6016 0.801758H70.1954L74.2746 14.3554L78.3259 0.801758H84.9197ZM101.563 12.5185C101.563 12.9453 101.535 13.3535 101.48 13.7431H91.5051C91.5981 15.0975 92.1663 15.7748 93.2094 15.7748C93.88 15.7748 94.3641 15.4686 94.6623 14.8563H101.228C101.005 15.9696 100.53 16.9715 99.8032 17.8621C99.0954 18.7342 98.1919 19.4299 97.0931 19.9494C96.0126 20.4503 94.8206 20.7008 93.5168 20.7008C91.9521 20.7008 90.5551 20.3762 89.3258 19.7267C88.115 19.0773 87.165 18.1497 86.4759 16.9436C85.8053 15.7191 85.4701 14.2904 85.4701 12.6577C85.4701 11.025 85.8053 9.60559 86.4759 8.39958C87.165 7.17502 88.115 6.23806 89.3258 5.58866C90.5551 4.93927 91.9521 4.61458 93.5168 4.61458C95.0814 4.61458 96.469 4.93927 97.6798 5.58866C98.9091 6.21949 99.8591 7.12864 100.53 8.31609C101.219 9.50353 101.563 10.9044 101.563 12.5185ZM95.277 11.0435C95.277 10.524 95.1093 10.1344 94.774 9.87461C94.4388 9.5963 94.0197 9.45715 93.5168 9.45715C92.4177 9.45715 91.7751 9.98594 91.5889 11.0435H95.277ZM109.728 7.70381C110.361 6.79467 111.134 6.07107 112.047 5.533C112.959 4.97638 113.909 4.69808 114.897 4.69808V11.294H113.136C111.963 11.294 111.097 11.4981 110.538 11.9063C109.998 12.3144 109.728 13.038 109.728 14.0771V20.506H103.525V4.8094H109.728V7.70381ZM123.58 20.7008C122.09 20.7008 120.768 20.4597 119.613 19.9772C118.476 19.4947 117.573 18.8268 116.903 17.9734C116.232 17.12 115.85 16.155 115.757 15.079H121.708C121.783 15.5428 121.978 15.8861 122.295 16.1087C122.63 16.3314 123.049 16.4427 123.552 16.4427C123.869 16.4427 124.12 16.3777 124.307 16.2479C124.493 16.0994 124.586 15.9232 124.586 15.7191C124.586 15.3666 124.391 15.1161 123.999 14.9677C123.608 14.8192 122.947 14.6522 122.016 14.4667C120.879 14.2441 119.939 14.0029 119.194 13.7431C118.467 13.4833 117.825 13.038 117.266 12.4072C116.726 11.7764 116.456 10.9044 116.456 9.79112C116.456 8.82632 116.707 7.95428 117.21 7.17502C117.731 6.37721 118.495 5.75565 119.501 5.31035C120.507 4.84651 121.727 4.61458 123.161 4.61458C125.285 4.61458 126.942 5.13409 128.134 6.17311C129.345 7.21214 130.072 8.56656 130.314 10.2364H124.81C124.716 9.80967 124.521 9.48498 124.223 9.26233C123.925 9.02114 123.524 8.90053 123.021 8.90053C122.705 8.90053 122.463 8.96548 122.295 9.09535C122.127 9.20667 122.044 9.38294 122.044 9.62414C122.044 9.93956 122.239 10.1808 122.63 10.3477C123.021 10.4962 123.645 10.6539 124.502 10.8209C125.638 11.0435 126.598 11.294 127.38 11.5723C128.162 11.8506 128.842 12.333 129.42 13.0195C129.997 13.6874 130.286 14.6151 130.286 15.8026C130.286 16.7303 130.016 17.5653 129.476 18.3074C128.935 19.0495 128.153 19.6339 127.129 20.0607C126.123 20.4875 124.94 20.7008 123.58 20.7008ZM148.003 12.5185C148.003 12.9453 147.975 13.3535 147.919 13.7431H137.944C138.037 15.0975 138.605 15.7748 139.648 15.7748C140.319 15.7748 140.803 15.4686 141.101 14.8563H147.667C147.444 15.9696 146.969 16.9715 146.242 17.8621C145.534 18.7342 144.631 19.4299 143.532 19.9494C142.452 20.4503 141.26 20.7008 139.956 20.7008C138.391 20.7008 136.994 20.3762 135.765 19.7267C134.554 19.0773 133.604 18.1497 132.915 16.9436C132.244 15.7191 131.909 14.2904 131.909 12.6577C131.909 11.025 132.244 9.60559 132.915 8.39958C133.604 7.17502 134.554 6.23806 135.765 5.58866C136.994 4.93927 138.391 4.61458 139.956 4.61458C141.52 4.61458 142.908 4.93927 144.119 5.58866C145.348 6.21949 146.298 7.12864 146.969 8.31609C147.658 9.50353 148.003 10.9044 148.003 12.5185ZM141.716 11.0435C141.716 10.524 141.548 10.1344 141.213 9.87461C140.878 9.5963 140.459 9.45715 139.956 9.45715C138.857 9.45715 138.214 9.98594 138.028 11.0435H141.716Z" fill="#FF5AEE"/>
<path d="M6.20266 0.803215V20.5074H0V0.803215H6.20266ZM8.44526 10.6275C8.44526 8.67934 8.83642 6.94455 9.61874 5.42313C10.4197 3.90172 11.5559 2.72354 13.0275 1.88862C14.4989 1.03514 16.2312 0.608398 18.2243 0.608398C19.9378 0.608398 21.4653 0.933085 22.8065 1.58248C24.1661 2.2133 25.2652 3.11317 26.1034 4.28207C26.9601 5.45096 27.5283 6.81468 27.8077 8.3732H21.2698C20.9716 7.72381 20.5433 7.22286 19.9845 6.87034C19.4443 6.49925 18.8202 6.31372 18.1126 6.31372C17.0694 6.31372 16.2406 6.70335 15.6259 7.48262C15.0298 8.26188 14.7318 9.31017 14.7318 10.6275C14.7318 11.9448 15.0298 12.9931 15.6259 13.7724C16.2406 14.5517 17.0694 14.9413 18.1126 14.9413C18.8202 14.9413 19.4443 14.765 19.9845 14.4125C20.5433 14.0414 20.9716 13.5312 21.2698 12.8818H27.8077C27.5283 14.4403 26.9601 15.804 26.1034 16.9729C25.2652 18.1418 24.1661 19.0509 22.8065 19.7004C21.4653 20.3311 19.9378 20.6466 18.2243 20.6466C16.2312 20.6466 14.4989 20.2291 13.0275 19.3942C11.5559 18.5408 10.4197 17.3532 9.61874 15.8319C8.83642 14.3105 8.44526 12.5757 8.44526 10.6275Z" fill="#F7ECEC"/>
<path d="M30.6425 20.5087L30.1641 6.41016C31.6403 9.18286 34.4924 13.2832 35.4947 13.4007V20.5087H30.6425Z" fill="#F7ECEC"/>
<path d="M30.1659 7.23491C30.0465 1.87727 35.6229 -1.88575 40.5171 1.05492C42.1296 2.02369 43.4984 3.45852 44.9701 5.02558C45.037 5.09682 45.068 5.08944 45.1305 5.02327C47.4324 2.59023 50.7658 -1.11971 55.4343 0.323705C57.3991 0.931149 58.7645 2.26769 59.4641 4.28165C61.805 11.022 55.0898 16.6026 49.3313 12.9032C47.8787 11.9702 46.6246 10.6828 45.1419 9.09968C45.0629 9.01513 45.027 9.02708 44.9548 9.10358C43.2703 10.8845 41.4573 12.8203 39.2176 13.6307C34.6604 15.2799 30.2917 12.4325 30.1659 7.23491ZM33.0177 7.13105C33.1631 10.2259 35.4335 11.6687 37.8527 11.12C39.9434 10.6459 41.6972 8.71794 43.1911 7.10796C43.2415 7.05373 43.2133 7.03169 43.1786 6.9978C41.8812 5.72807 40.6142 4.17699 39.0172 3.37882C35.9223 1.83182 33.0072 4.10053 33.0177 7.13105ZM57.0824 7.00021C56.9903 4.00933 54.7398 2.37945 52.1464 3.01722C50.106 3.51903 48.3626 5.4378 46.9137 6.99836C46.8635 7.05247 46.8828 7.07775 46.924 7.11807C48.7351 8.89027 50.8725 11.6884 53.7605 11.1785C55.6841 10.8388 57.0866 9.08211 57.0824 7.00021Z" fill="#F7ECEC"/>
<path d="M32.9234 7.20168C32.8262 2.81816 37.3697 -0.260663 41.3578 2.14535C42.6717 2.93798 43.7869 4.11191 44.9861 5.39405C45.0407 5.45235 45.0659 5.44632 45.1168 5.39216C46.9924 3.40151 49.7085 0.366098 53.5125 1.54708C55.1134 2.04408 56.226 3.13761 56.7958 4.7854C58.7033 10.3002 53.2317 14.8662 48.5396 11.8394C47.3562 11.076 46.3342 10.0227 45.1262 8.72741C45.0616 8.65824 45.0326 8.66802 44.9736 8.73062C43.601 10.1877 42.1237 11.7716 40.2988 12.4346C36.5856 13.7839 33.0258 11.4542 32.9234 7.20168ZM35.247 7.11672C35.3654 9.64889 37.2155 10.8293 39.1867 10.3804C40.8901 9.99251 42.3193 8.41509 43.5365 7.09783C43.5775 7.05346 43.5545 7.03541 43.5262 7.00769C42.4693 5.96881 41.4368 4.69976 40.1356 4.04671C37.6138 2.78099 35.2386 4.6372 35.247 7.11672ZM54.8553 7.00967C54.7803 4.56258 52.9466 3.22903 50.8334 3.75086C49.1708 4.16142 47.7503 5.73133 46.5698 7.00816C46.5289 7.05244 46.5447 7.07311 46.5781 7.1061C48.054 8.55607 49.7956 10.8455 52.1486 10.4282C53.7158 10.1503 54.8588 8.71304 54.8553 7.00967Z" fill="#F7ECEC"/>
<path d="M32.1891 7.29997C32.0866 2.70771 36.8711 -0.517715 41.0707 2.00284C42.4541 2.83323 43.6287 4.06306 44.8913 5.40626C44.9488 5.46732 44.9753 5.46101 45.029 5.40428C47.0043 3.31882 49.8642 0.138873 53.8699 1.3761C55.5559 1.89676 56.7273 3.04236 57.3275 4.76862C59.3361 10.5461 53.5744 15.3293 48.6334 12.1585C47.3871 11.3588 46.3109 10.2553 45.0389 8.89835C44.9709 8.82588 44.9402 8.83612 44.8782 8.9017C43.4329 10.4282 41.8773 12.0875 39.9557 12.7821C36.0454 14.1956 32.2968 11.755 32.1891 7.29997ZM34.6359 7.21096C34.7605 9.86372 36.7088 11.1003 38.7844 10.6301C40.5783 10.2237 42.0832 8.57116 43.3649 7.19117C43.4081 7.1447 43.384 7.12579 43.3542 7.09675C42.2411 6.0084 41.1538 4.67892 39.7836 3.99476C37.1281 2.66877 34.6269 4.61338 34.6359 7.21096ZM55.284 7.09882C55.205 4.53519 53.274 3.13816 51.0489 3.68481C49.2981 4.11493 47.8022 5.7596 46.5591 7.09722C46.516 7.1436 46.5326 7.16526 46.5679 7.19983C48.1219 8.71886 49.956 11.1173 52.4336 10.6802C54.0841 10.389 55.2877 8.88328 55.284 7.09882Z" fill="#F7ECEC"/>
</svg>
