<svg width="124" height="23" viewBox="0 0 124 23" fill="none" xmlns="http://www.w3.org/2000/svg">
<path d="M12.16 23H5.376C3.84 21.592 2.72 19.9173 2.016 17.976C1.312 16.0347 0.96 14.008 0.96 11.896C0.96 9.76267 1.38667 7.66133 2.24 5.592C3.09333 3.52267 4.288 1.85867 5.824 0.599998H13.6V4.44H7.648C7.09333 5.08 6.61333 6.09333 6.208 7.48C5.80267 8.84533 5.6 10.3067 5.6 11.864C5.6 13.4 5.78133 14.872 6.144 16.28C6.528 17.6667 6.99733 18.6693 7.552 19.288H10.624V10.584H14.848V15.96C14.848 18.904 13.952 21.2507 12.16 23ZM27.7805 0.599998C29.2738 1.816 30.3832 3.448 31.1085 5.496C31.8338 7.544 32.1965 9.656 32.1965 11.832C32.1965 13.9867 31.8445 16.0347 31.1405 17.976C30.4365 19.9173 29.3165 21.592 27.7805 23H21.1885C19.6525 21.592 18.5325 19.9173 17.8285 17.976C17.1245 16.0347 16.7725 13.9867 16.7725 11.832C16.7725 9.656 17.1352 7.544 17.8605 5.496C18.5858 3.448 19.6952 1.816 21.1885 0.599998H27.7805ZM23.3325 19.288H25.6365C26.1698 18.6693 26.6178 17.6667 26.9805 16.28C27.3645 14.872 27.5565 13.3893 27.5565 11.832C27.5565 10.2747 27.3752 8.81333 27.0125 7.448C26.6498 6.06133 26.2018 5.05867 25.6685 4.44H23.3325C22.7992 5.05867 22.3405 6.06133 21.9565 7.448C21.5938 8.81333 21.4125 10.2747 21.4125 11.832C21.4125 13.3893 21.5938 14.872 21.9565 16.28C22.3405 17.6667 22.7992 18.6693 23.3325 19.288ZM45.1243 0.599998C46.6176 1.816 47.7269 3.448 48.4523 5.496C49.1776 7.544 49.5403 9.656 49.5403 11.832C49.5403 13.9867 49.1883 16.0347 48.4843 17.976C47.7803 19.9173 46.6603 21.592 45.1243 23H38.5323C36.9963 21.592 35.8763 19.9173 35.1723 17.976C34.4683 16.0347 34.1163 13.9867 34.1163 11.832C34.1163 9.656 34.4789 7.544 35.2043 5.496C35.9296 3.448 37.0389 1.816 38.5323 0.599998H45.1243ZM40.6763 19.288H42.9803C43.5136 18.6693 43.9616 17.6667 44.3243 16.28C44.7083 14.872 44.9003 13.3893 44.9003 11.832C44.9003 10.2747 44.7189 8.81333 44.3563 7.448C43.9936 6.06133 43.5456 5.05867 43.0123 4.44H40.6763C40.1429 5.05867 39.6843 6.06133 39.3003 7.448C38.9376 8.81333 38.7563 10.2747 38.7563 11.832C38.7563 13.3893 38.9376 14.872 39.3003 16.28C39.6843 17.6667 40.1429 18.6693 40.6763 19.288ZM56.388 19.288H59.268C59.8653 18.5413 60.3347 17.4533 60.676 16.024C61.0387 14.5947 61.22 13.176 61.22 11.768C61.22 8.41867 60.5907 5.976 59.332 4.44H56.388V19.288ZM52.036 23V0.599998H61.316C64.3453 3.288 65.86 6.936 65.86 11.544C65.86 16.1307 64.4413 19.9493 61.604 23H52.036ZM76.196 12.76H76.068H76.196L77.892 5.752L79.268 0.599998H83.268L84.708 23H80.516L79.908 10.776H79.748L77.444 19.8H74.82L72.516 10.776H72.356L71.748 23H67.556L68.996 0.599998H72.996L74.372 5.752L76.068 12.76H76.196ZM87.286 23V0.599998H91.67V23H87.286ZM104.739 23L98.7548 10.616L98.5948 10.68L98.7868 14.456V23H94.7548V0.599998H97.9868L103.875 13.464L104.035 13.4L103.683 9.464V0.599998H107.715V23H104.739ZM114.402 4.44H109.57V0.599998H123.586V4.44H118.754V23H114.402V4.44Z" fill="#FFFEFF"/>
</svg>
