<svg width="12" height="12" viewBox="0 0 12 12" fill="none" xmlns="http://www.w3.org/2000/svg">
<path d="M9.22757 10.1626L7.1182 5.05323C7.07924 4.95887 7.01315 4.8782 6.92831 4.82144C6.84346 4.76468 6.74368 4.73438 6.64159 4.73438C6.53951 4.73438 6.43973 4.76468 6.35488 4.82144C6.27004 4.8782 6.20395 4.95887 6.16499 5.05323L4.05562 10.1626C4.02939 10.2253 4.0158 10.2925 4.01563 10.3604C4.01546 10.4283 4.02871 10.4956 4.05462 10.5584C4.08053 10.6212 4.1186 10.6783 4.16663 10.7263C4.21466 10.7743 4.2717 10.8124 4.33449 10.8383C4.39728 10.8642 4.46457 10.8775 4.53249 10.8773C4.60042 10.8772 4.66764 10.8636 4.7303 10.8374C4.79297 10.8111 4.84983 10.7728 4.89762 10.7245C4.94542 10.6763 4.98321 10.619 5.00882 10.5561L5.43843 9.51573H7.84476L8.27437 10.5561C8.31331 10.6505 8.37941 10.7312 8.46428 10.788C8.54915 10.8448 8.64897 10.8751 8.75109 10.8751C8.83581 10.8751 8.91923 10.8541 8.99394 10.8142C9.06866 10.7742 9.13237 10.7165 9.17946 10.646C9.22654 10.5756 9.25554 10.4946 9.26389 10.4103C9.27224 10.326 9.25969 10.2409 9.22734 10.1626H9.22757ZM5.86429 8.48448L6.64171 6.60127L7.41913 8.48448H5.86429Z" fill="#C949C0" fill-opacity="0.76"/>
<path d="M6.2775 8.03719C6.35761 7.92654 6.39053 7.78862 6.36904 7.65371C6.34755 7.51881 6.27341 7.39794 6.16289 7.31766C6.1582 7.31414 5.81133 7.0568 5.30766 6.50367C6.23695 5.24555 6.76336 3.81422 6.97805 3.14062H7.73438C7.87113 3.14062 8.00228 3.0863 8.09898 2.9896C8.19567 2.8929 8.25 2.76175 8.25 2.625C8.25 2.48825 8.19567 2.3571 8.09898 2.2604C8.00228 2.1637 7.87113 2.10938 7.73438 2.10938H5.01562V1.64062C5.01562 1.50387 4.9613 1.37272 4.8646 1.27602C4.7679 1.17932 4.63675 1.125 4.5 1.125C4.36325 1.125 4.2321 1.17932 4.1354 1.27602C4.0387 1.37272 3.98438 1.50387 3.98438 1.64062V2.10938H1.26562C1.12887 2.10938 0.997721 2.1637 0.901023 2.2604C0.804325 2.3571 0.75 2.48825 0.75 2.625C0.75 2.76175 0.804325 2.8929 0.901023 2.9896C0.997721 3.0863 1.12887 3.14062 1.26562 3.14062H5.88867C5.66555 3.77227 5.25469 4.76953 4.62797 5.68031C3.8918 4.70344 3.61828 4.07133 3.61617 4.06617C3.56228 3.94162 3.46145 3.84334 3.33557 3.79264C3.20968 3.74195 3.06889 3.74292 2.94372 3.79536C2.81855 3.8478 2.7191 3.94747 2.66693 4.07275C2.61477 4.19804 2.61411 4.33884 2.66508 4.46461C2.67867 4.49695 3.00609 5.26688 3.90398 6.43172C3.92555 6.45961 3.94687 6.4868 3.9682 6.51398C3.04852 7.55344 2.14617 8.1982 1.76859 8.40633C1.64853 8.47181 1.5594 8.58231 1.52081 8.71351C1.48222 8.84472 1.49733 8.98588 1.56281 9.10594C1.6283 9.226 1.7388 9.31513 1.87 9.35372C2.0012 9.39231 2.14236 9.3772 2.26242 9.31172C2.31305 9.28406 3.40148 8.68148 4.64438 7.3057C5.17219 7.87008 5.535 8.13633 5.5568 8.1518C5.61164 8.19163 5.6738 8.22026 5.73972 8.23605C5.80564 8.25184 5.87402 8.25448 5.94096 8.24381C6.0079 8.23314 6.07208 8.20938 6.12983 8.17389C6.18757 8.13839 6.23775 8.09186 6.2775 8.03695V8.03719Z" fill="#C949C0" fill-opacity="0.76"/>
</svg>
