<svg width="6" height="7" viewBox="0 0 6 7" fill="none" xmlns="http://www.w3.org/2000/svg">
<path d="M1.3827 6.05083C1.11976 6.05083 0.854358 5.97352 0.622437 5.8126L0.573583 5.77866C-0.0315162 5.35845 -0.182013 4.52418 0.238189 3.91908L1.5127 2.21851C1.71242 1.93069 2.0179 1.73435 2.36912 1.67105C2.72034 1.60755 3.07513 1.68495 3.36825 1.88851L3.41711 1.92236C3.66595 2.09509 3.8503 2.35016 3.9363 2.64054C3.96494 2.73742 3.90968 2.83925 3.8127 2.86789C3.71591 2.89634 3.61408 2.84135 3.58535 2.74429C3.52214 2.53048 3.39177 2.35016 3.20852 2.22299L3.15966 2.18914C2.94668 2.0412 2.68887 1.98503 2.43407 2.03114C2.1791 2.07716 1.95724 2.2197 1.8094 2.43259L0.534975 4.13307C0.233706 4.56709 0.342942 5.17282 0.782357 5.47803L0.831212 5.51197C1.27044 5.81699 1.87627 5.70793 2.18148 5.26861L2.57085 4.70816C2.62858 4.62536 2.74239 4.60487 2.82555 4.66232C2.90844 4.72005 2.92902 4.83405 2.87138 4.91702L2.48201 5.47739C2.22283 5.85066 1.80601 6.05083 1.3827 6.05083Z" fill="white"/>
<path d="M3.3935 4.40157C3.13029 4.40157 2.86434 4.32435 2.63205 4.16315L2.58283 4.12884C2.33417 3.95611 2.15 3.70123 2.06419 3.41112C2.03555 3.31414 2.0909 3.21241 2.18779 3.18377C2.28504 3.15514 2.38659 3.2104 2.41513 3.30737C2.47826 3.521 2.60854 3.70123 2.79179 3.82849L2.84101 3.8628C3.28006 4.16763 3.88589 4.0584 4.19109 3.61907L5.46551 1.91832C5.76687 1.4843 5.65764 0.878562 5.21822 0.573359L5.16973 0.539966C4.95639 0.391665 4.69885 0.335766 4.44369 0.381601C4.18871 0.42762 3.96686 0.570157 3.81901 0.783049L3.42973 1.34341C3.3721 1.42648 3.2581 1.44697 3.17512 1.38934C3.09214 1.3317 3.07156 1.21771 3.1292 1.13473L3.51847 0.574366C3.72203 0.281148 4.02751 0.0848155 4.37882 0.0215061C4.72995 -0.0417118 5.08493 0.0355037 5.37805 0.239155L5.42645 0.272548C6.0321 0.693208 6.1825 1.52748 5.76221 2.13249L4.48779 3.83325C4.23116 4.20258 3.8159 4.40157 3.3935 4.40157Z" fill="white"/>
<path d="M4.53284 2.76037C4.51372 2.76037 4.4945 2.75442 4.47804 2.74207C4.4376 2.71179 4.42936 2.65443 4.45974 2.61408L4.50987 2.54729C4.54016 2.50686 4.59761 2.4988 4.63787 2.529C4.6783 2.55928 4.68654 2.61664 4.65616 2.65699L4.60603 2.72377C4.5881 2.74783 4.56065 2.76037 4.53284 2.76037Z" fill="white"/>
<path d="M4.74377 2.48132C4.72465 2.48132 4.70544 2.47538 4.68897 2.46303C4.64854 2.43274 4.6403 2.37538 4.67068 2.33503L5.0756 1.79489C5.17267 1.6551 5.21018 1.48255 5.17935 1.31184C5.14852 1.14103 5.05309 0.992454 4.91056 0.893556L4.87918 0.871873C4.83764 0.843055 4.8273 0.786058 4.85603 0.744523C4.88467 0.702987 4.94166 0.692558 4.98338 0.721376L5.01485 0.74315C5.19755 0.870044 5.31987 1.06043 5.35939 1.27927C5.39892 1.49811 5.35079 1.71932 5.22399 1.90193L4.81715 2.44482C4.79903 2.4687 4.77168 2.48132 4.74377 2.48132Z" fill="white"/>
</svg>
