<svg width="12" height="11" viewBox="0 0 12 11" fill="none" xmlns="http://www.w3.org/2000/svg">
<path d="M8.5 10H10C10.3501 10 10.5251 10 10.6588 9.9346C10.7764 9.87706 10.8719 9.78532 10.9319 9.6724C11 9.54406 11 9.37606 11 9.04V3.76C11 3.42397 11 3.25595 10.9319 3.12761C10.8719 3.01471 10.7764 2.92292 10.6588 2.86539C10.5251 2.8 10.3501 2.8 10 2.8H7.03919C6.88637 2.8 6.80994 2.8 6.738 2.78342C6.67419 2.76872 6.61325 2.74448 6.55731 2.71158C6.49425 2.67448 6.44019 2.62259 6.33212 2.51882L5.04288 1.28118C4.93481 1.17741 4.88075 1.12552 4.81769 1.08842C4.76175 1.05552 4.70079 1.03128 4.63702 1.01658C4.56509 1 4.48866 1 4.33579 1H2C1.64997 1 1.47495 1 1.34126 1.06539C1.22366 1.12292 1.12804 1.21471 1.06812 1.32761C1 1.45595 1 1.62397 1 1.96V9.04C1 9.37606 1 9.54406 1.06812 9.6724C1.12804 9.78532 1.22366 9.87706 1.34126 9.9346C1.47495 10 1.64997 10 2 10H3.5" fill="black" fill-opacity="0.55"/>
<path d="M8.5 10H10C10.3501 10 10.5251 10 10.6588 9.9346C10.7764 9.87706 10.8719 9.78532 10.9319 9.6724C11 9.54406 11 9.37606 11 9.04V3.76C11 3.42397 11 3.25595 10.9319 3.12761C10.8719 3.01471 10.7764 2.92292 10.6588 2.86539C10.5251 2.8 10.3501 2.8 10 2.8H7.03919C6.88637 2.8 6.80994 2.8 6.738 2.78342C6.67419 2.76872 6.61325 2.74448 6.55731 2.71158C6.49425 2.67448 6.44019 2.62259 6.33212 2.51882L5.04288 1.28118C4.93481 1.17741 4.88075 1.12552 4.81769 1.08842C4.76175 1.05552 4.70079 1.03128 4.63702 1.01658C4.56509 1 4.48866 1 4.33579 1H2C1.64997 1 1.47495 1 1.34126 1.06539C1.22366 1.12292 1.12804 1.21471 1.06812 1.32761C1 1.45595 1 1.62397 1 1.96V9.04C1 9.37606 1 9.54406 1.06812 9.6724C1.12804 9.78532 1.22366 9.87706 1.34126 9.9346C1.47495 10 1.64997 10 2 10H3.5" stroke="white" stroke-linejoin="round"/>
<path d="M6 5L4 7.14286L6 5ZM6 5L8 7.14286L6 5ZM6 5V10V5Z" fill="black" fill-opacity="0.55"/>
<path d="M6 5L4 7.14286M6 5L8 7.14286M6 5V10" stroke="white"/>
</svg>
