<svg width="162" height="30" viewBox="0 0 162 30" fill="none" xmlns="http://www.w3.org/2000/svg">
<path d="M14.96 30H6.056C4.04 28.152 2.57 25.954 1.646 23.406C0.722 20.858 0.26 18.198 0.26 15.426C0.26 12.626 0.82 9.868 1.94 7.152C3.06 4.436 4.628 2.252 6.644 0.599998H16.85V5.64H9.038C8.31 6.48 7.68 7.81 7.148 9.63C6.616 11.422 6.35 13.34 6.35 15.384C6.35 17.4 6.588 19.332 7.064 21.18C7.568 23 8.184 24.316 8.912 25.128H12.944V13.704H18.488V20.76C18.488 24.624 17.312 27.704 14.96 30ZM35.4619 0.599998C37.4219 2.196 38.8779 4.338 39.8299 7.026C40.7819 9.714 41.2579 12.486 41.2579 15.342C41.2579 18.17 40.7959 20.858 39.8719 23.406C38.9479 25.954 37.4779 28.152 35.4619 30H26.8099C24.7939 28.152 23.3239 25.954 22.3999 23.406C21.4759 20.858 21.0139 18.17 21.0139 15.342C21.0139 12.486 21.4899 9.714 22.4419 7.026C23.3939 4.338 24.8499 2.196 26.8099 0.599998H35.4619ZM29.6239 25.128H32.6479C33.3479 24.316 33.9359 23 34.4119 21.18C34.9159 19.332 35.1679 17.386 35.1679 15.342C35.1679 13.298 34.9299 11.38 34.4539 9.588C33.9779 7.768 33.3899 6.452 32.6899 5.64H29.6239C28.9239 6.452 28.3219 7.768 27.8179 9.588C27.3419 11.38 27.1039 13.298 27.1039 15.342C27.1039 17.386 27.3419 19.332 27.8179 21.18C28.3219 23 28.9239 24.316 29.6239 25.128ZM58.2256 0.599998C60.1856 2.196 61.6416 4.338 62.5936 7.026C63.5456 9.714 64.0216 12.486 64.0216 15.342C64.0216 18.17 63.5596 20.858 62.6356 23.406C61.7116 25.954 60.2416 28.152 58.2256 30H49.5736C47.5576 28.152 46.0876 25.954 45.1636 23.406C44.2396 20.858 43.7776 18.17 43.7776 15.342C43.7776 12.486 44.2536 9.714 45.2056 7.026C46.1576 4.338 47.6136 2.196 49.5736 0.599998H58.2256ZM52.3876 25.128H55.4116C56.1116 24.316 56.6996 23 57.1756 21.18C57.6796 19.332 57.9316 17.386 57.9316 15.342C57.9316 13.298 57.6936 11.38 57.2176 9.588C56.7416 7.768 56.1536 6.452 55.4536 5.64H52.3876C51.6876 6.452 51.0856 7.768 50.5816 9.588C50.1056 11.38 49.8676 13.298 49.8676 15.342C49.8676 17.386 50.1056 19.332 50.5816 21.18C51.0856 23 51.6876 24.316 52.3876 25.128ZM73.0093 25.128H76.7893C77.5733 24.148 78.1893 22.72 78.6373 20.844C79.1133 18.968 79.3513 17.106 79.3513 15.258C79.3513 10.862 78.5253 7.656 76.8733 5.64H73.0093V25.128ZM67.2973 30V0.599998H79.4773C83.4533 4.128 85.4413 8.916 85.4413 14.964C85.4413 20.984 83.5793 25.996 79.8553 30H67.2973ZM99.0073 16.56H98.8393H99.0073L101.233 7.362L103.039 0.599998H108.289L110.179 30H104.677L103.879 13.956H103.669L100.645 25.8H97.2013L94.1773 13.956H93.9673L93.1693 30H87.6672L89.5573 0.599998H94.8073L96.6133 7.362L98.8393 16.56H99.0073ZM113.563 30V0.599998H119.317V30H113.563ZM136.47 30L128.616 13.746L128.406 13.83L128.658 18.786V30H123.366V0.599998H127.608L135.336 17.484L135.546 17.4L135.084 12.234V0.599998H140.376V30H136.47ZM149.153 5.64H142.811V0.599998H161.207V5.64H154.865V30H149.153V5.64Z" fill="#FFFEFF"/>
</svg>
