<svg width="13" height="13" viewBox="0 0 13 13" fill="none" xmlns="http://www.w3.org/2000/svg">
<path d="M6.5 0.25C3.05375 0.25 0.25 3.05375 0.25 6.5C0.25 9.94625 3.05375 12.75 6.5 12.75C9.94625 12.75 12.75 9.94625 12.75 6.5C12.75 3.05375 9.94625 0.25 6.5 0.25ZM3.375 5.5625C3.37508 5.31378 3.47397 5.07527 3.6499 4.89946C3.73701 4.8124 3.84042 4.74336 3.95422 4.69627C4.06801 4.64917 4.18997 4.62496 4.31312 4.625C4.43628 4.62504 4.55822 4.64934 4.67199 4.69651C4.78575 4.74367 4.88911 4.81279 4.97617 4.8999C5.06322 4.98701 5.13227 5.09042 5.17936 5.20422C5.22645 5.31801 5.25067 5.43997 5.25062 5.56312C5.25054 5.81185 5.15166 6.05035 4.97572 6.22617C4.79979 6.40198 4.56122 6.50071 4.3125 6.50062C4.06378 6.50054 3.82527 6.40166 3.64946 6.22572C3.47364 6.04979 3.37492 5.81122 3.375 5.5625ZM4.0775 9.62L3.9225 8.38L8.9225 7.755L9.0775 8.995L4.0775 9.62ZM8.68312 6.49125C8.55851 6.49443 8.43452 6.47263 8.31847 6.42713C8.20241 6.38163 8.09664 6.31336 8.00739 6.22633C7.91815 6.13931 7.84723 6.03529 7.79882 5.92042C7.75041 5.80555 7.72549 5.68215 7.72553 5.55749C7.72557 5.43284 7.75058 5.30945 7.79906 5.19461C7.84755 5.07977 7.91854 4.97581 8.00784 4.88884C8.09715 4.80187 8.20296 4.73367 8.31905 4.68825C8.43513 4.64283 8.55914 4.62111 8.68375 4.62437C8.92713 4.63075 9.15839 4.73194 9.32825 4.90636C9.4981 5.08079 9.59311 5.31465 9.59303 5.55812C9.59295 5.80158 9.49778 6.03538 9.32781 6.20969C9.15784 6.384 8.92651 6.48503 8.68312 6.49125Z" fill="#FF0000" fill-opacity="0.55"/>
</svg>
