<svg width="14" height="14" viewBox="0 0 14 14" fill="none" xmlns="http://www.w3.org/2000/svg">
<path d="M12.6241 3.32133L10.797 1.49363C8.56748 -0.735879 4.69347 -0.413949 2.1373 2.14219C-0.418867 4.69833 -0.74074 8.57236 1.48877 10.8019L3.30039 12.6135C5.68459 14.6795 9.52667 14.399 11.9601 11.9649C14.398 9.5276 14.69 5.546 12.6241 3.32133ZM2.99134 2.9962C5.10442 0.883115 8.21962 0.624251 9.943 2.34764C11.6664 4.07103 11.4075 7.18622 9.29445 9.2993C7.18136 11.4124 4.06617 11.6713 2.34278 9.94787C0.61939 8.22448 0.878253 5.10928 2.99134 2.9962ZM11.1061 11.1109C9.37888 12.8385 6.80975 13.2438 4.94443 12.2841C4.94772 12.2843 4.95103 12.2843 4.95434 12.2844C5.00682 12.2868 5.05939 12.2886 5.11209 12.2896C5.11541 12.2896 5.11875 12.2896 5.12209 12.2896C5.17148 12.2904 5.22096 12.2906 5.27053 12.2902C5.2881 12.2901 5.30571 12.2896 5.32329 12.2893C5.35881 12.2887 5.39437 12.288 5.42998 12.2868C5.4503 12.2861 5.47065 12.2851 5.49101 12.2842C5.52418 12.2827 5.55736 12.2811 5.59056 12.2791C5.61165 12.2778 5.63274 12.2764 5.65385 12.2749C5.68697 12.2726 5.72009 12.2699 5.75324 12.2671C5.77384 12.2653 5.79442 12.2635 5.81503 12.2615C5.85044 12.2581 5.88585 12.2542 5.92129 12.2502C5.93938 12.2481 5.95744 12.2463 5.97553 12.2441C6.023 12.2383 6.0705 12.2319 6.118 12.225C6.12391 12.2241 6.1298 12.2234 6.13572 12.2225C6.18907 12.2146 6.24243 12.2059 6.29579 12.1967C6.31232 12.1938 6.32885 12.1905 6.34538 12.1875C6.38235 12.1808 6.41932 12.1739 6.45629 12.1666C6.47644 12.1626 6.4966 12.1583 6.51675 12.1541C6.55032 12.147 6.58389 12.1398 6.61744 12.1323C6.6385 12.1275 6.65953 12.1226 6.68059 12.1176C6.71368 12.1098 6.74671 12.1018 6.77975 12.0934C6.8005 12.0882 6.82122 12.083 6.84194 12.0775C6.87653 12.0685 6.91109 12.059 6.94565 12.0493C6.96442 12.0441 6.98319 12.039 7.00195 12.0336C7.04413 12.0214 7.08625 12.0087 7.12834 11.9957C7.13924 11.9923 7.15017 11.9892 7.16106 11.9857C7.21391 11.9691 7.26668 11.9517 7.31933 11.9337C7.33385 11.9288 7.34834 11.9235 7.36283 11.9184C7.40105 11.9051 7.4392 11.8915 7.4773 11.8775C7.49669 11.8703 7.51603 11.8629 7.53539 11.8556C7.56871 11.8429 7.60197 11.8302 7.63517 11.817C7.65581 11.8088 7.67638 11.8005 7.69696 11.7921C7.72923 11.7789 7.76145 11.7655 7.7936 11.7519C7.81404 11.7432 7.83445 11.7345 7.85483 11.7256C7.88795 11.7112 7.92098 11.6963 7.95399 11.6813C7.97292 11.6727 7.99189 11.6643 8.0108 11.6555C8.04884 11.6378 8.08675 11.6196 8.12462 11.6012C8.13809 11.5946 8.15165 11.5883 8.1651 11.5817C8.21628 11.5564 8.26726 11.5305 8.31807 11.5039C8.32942 11.4979 8.34065 11.4917 8.35198 11.4857C8.39141 11.4648 8.43078 11.4436 8.46996 11.4219C8.48796 11.4119 8.50585 11.4016 8.5238 11.3914C8.55632 11.3731 8.58876 11.3545 8.62109 11.3356C8.64062 11.3242 8.6601 11.3125 8.67954 11.3009C8.71042 11.2824 8.74122 11.2637 8.77193 11.2447C8.79149 11.2326 8.81103 11.2205 8.8305 11.2082C8.86164 11.1885 8.89266 11.1685 8.9236 11.1483C8.94197 11.1363 8.9604 11.1244 8.97871 11.1123C9.01308 11.0894 9.04722 11.0661 9.08132 11.0426C9.09576 11.0326 9.11031 11.0229 9.12469 11.0128C9.17298 10.979 9.22102 10.9447 9.26874 10.9096C9.27576 10.9044 9.28267 10.8991 9.28966 10.8938C9.33031 10.8637 9.37079 10.8332 9.41101 10.8022C9.42717 10.7897 9.44317 10.7769 9.45924 10.7643C9.49024 10.7399 9.52115 10.7155 9.55189 10.6906C9.56987 10.676 9.58776 10.6612 9.60565 10.6464C9.63443 10.6226 9.66314 10.5986 9.69167 10.5743C9.70982 10.5589 9.72793 10.5434 9.74596 10.5277C9.77452 10.503 9.80289 10.4779 9.83117 10.4526C9.8484 10.4372 9.86567 10.4219 9.8828 10.4063C9.91323 10.3786 9.94343 10.3505 9.97355 10.3222C9.98798 10.3086 10.0026 10.2952 10.0169 10.2815C10.0611 10.2394 10.105 10.1967 10.1485 10.1533C10.1922 10.1096 10.2351 10.0654 10.2775 10.021C10.2913 10.0065 10.3046 9.99194 10.3183 9.97745C10.3468 9.94707 10.3752 9.91662 10.4031 9.8859C10.4187 9.86878 10.434 9.85157 10.4494 9.83433C10.475 9.80562 10.5004 9.77681 10.5255 9.74782C10.541 9.72996 10.5563 9.7121 10.5716 9.69413C10.5966 9.66474 10.6212 9.63519 10.6457 9.60553C10.6599 9.58823 10.6743 9.57096 10.6883 9.55355C10.715 9.52069 10.7411 9.48757 10.7671 9.4544C10.7782 9.44019 10.7895 9.42609 10.8005 9.41185C10.8371 9.36444 10.8731 9.31674 10.9083 9.26873C10.913 9.26231 10.9175 9.25577 10.9222 9.24932C10.9526 9.20762 10.9826 9.16576 11.012 9.12364C11.0236 9.10708 11.0348 9.09037 11.0462 9.07373C11.0684 9.04135 11.0905 9.00894 11.1121 8.97633C11.1246 8.9575 11.1369 8.93857 11.1492 8.91966C11.1694 8.88863 11.1893 8.85755 11.2089 8.82633C11.2211 8.80703 11.2332 8.78769 11.2451 8.76828C11.2648 8.73632 11.2842 8.70424 11.3033 8.67209C11.3142 8.65377 11.3252 8.63552 11.3359 8.61712C11.3575 8.58029 11.3784 8.54329 11.3992 8.50624C11.4069 8.49257 11.4148 8.47898 11.4223 8.46531C11.4504 8.41458 11.4777 8.36369 11.5044 8.31257C11.51 8.30178 11.5153 8.29091 11.5209 8.28013C11.5418 8.23965 11.5623 8.19909 11.5824 8.15835C11.5914 8.14012 11.6 8.12184 11.6088 8.10358C11.625 8.06992 11.641 8.03624 11.6566 8.00241C11.6659 7.98234 11.675 7.96225 11.6841 7.94215C11.6988 7.90951 11.7132 7.87679 11.7274 7.84404C11.7362 7.82385 11.7449 7.80367 11.7534 7.78346C11.7678 7.74946 11.7817 7.71541 11.7955 7.6813C11.803 7.66262 11.8107 7.64397 11.8181 7.62526C11.8341 7.58449 11.8496 7.54365 11.8649 7.50275C11.8693 7.49083 11.874 7.47894 11.8784 7.46699C11.8977 7.4142 11.9163 7.3613 11.9343 7.30828C11.939 7.29438 11.9433 7.28045 11.948 7.26656C11.961 7.22727 11.9739 7.18798 11.9861 7.14857C11.9922 7.12916 11.9979 7.10971 12.0038 7.09029C12.0142 7.0561 12.0243 7.02187 12.0341 6.98762C12.0401 6.96685 12.0458 6.94604 12.0516 6.92523C12.0608 6.89169 12.0697 6.85812 12.0784 6.82452C12.0837 6.80394 12.089 6.78336 12.0942 6.76278C12.1029 6.72743 12.1113 6.69202 12.1195 6.65663C12.1237 6.63821 12.1282 6.61978 12.1323 6.60132C12.1423 6.5562 12.1517 6.51102 12.1608 6.46585C12.1625 6.4573 12.1644 6.44875 12.1661 6.4402C12.1766 6.38656 12.1864 6.33286 12.1956 6.27919C12.1983 6.26331 12.2006 6.24743 12.2032 6.23155C12.2094 6.19357 12.2154 6.15561 12.2209 6.11762C12.2237 6.09764 12.2264 6.07765 12.229 6.05767C12.2337 6.02353 12.238 5.98939 12.2421 5.95528C12.2446 5.93434 12.2469 5.91339 12.2492 5.89241C12.2528 5.85862 12.2562 5.82485 12.2593 5.79105C12.2612 5.77067 12.2631 5.75026 12.2648 5.72988C12.2677 5.69373 12.2702 5.65761 12.2725 5.62152C12.2737 5.60391 12.275 5.58628 12.276 5.56867C12.2789 5.51769 12.2811 5.46674 12.2827 5.41587C12.2828 5.41338 12.2829 5.41089 12.283 5.40837C12.2846 5.35504 12.2854 5.30183 12.2855 5.24867C12.2856 5.23171 12.2853 5.21484 12.2852 5.19791C12.285 5.16154 12.2847 5.12519 12.2838 5.08893C12.2834 5.06892 12.2827 5.04893 12.282 5.02892C12.2809 4.99552 12.2796 4.96217 12.2779 4.92886C12.2773 4.91841 12.2772 4.90788 12.2766 4.89744C13.2487 6.70178 12.8409 9.3765 11.1061 11.1109Z" fill="#F9CE35"/>
</svg>
