<svg width="12" height="12" viewBox="0 0 12 12" fill="none" xmlns="http://www.w3.org/2000/svg">
<path d="M11.9875 2.3288L11.9584 2.07664H10.4987C10.5717 1.57231 10.6155 1.05315 10.6447 0.519159C10.6593 0.23733 10.4404 0 10.1922 0H1.82867C1.56594 0 1.36159 0.23733 1.37619 0.519159C1.39078 1.05315 1.44917 1.57231 1.52215 2.07664H0.0625407L0.0187525 2.3288C0.00415644 2.38813 -0.156401 3.90111 0.806941 5.26576C1.43457 6.15575 2.41251 6.76391 3.68237 7.0754C4.09106 7.49073 4.54354 7.80223 5.02521 7.99506C4.96683 8.60321 4.89385 9.19654 4.82087 9.74537H4.35379C3.62399 9.74537 3.04014 10.3387 3.04014 11.0803V12H8.96616V11.0803C8.96616 10.3387 8.38231 9.74537 7.65251 9.74537H7.20003C7.11245 9.18171 7.03947 8.60321 6.98109 7.99506C7.46276 7.81706 7.91524 7.50556 8.32393 7.0754C9.59379 6.76391 10.5717 6.15575 11.1994 5.26576C12.1627 3.90111 11.9875 2.38813 11.9875 2.3288ZM1.23023 4.89493C0.617192 4.03461 0.544212 3.10012 0.544212 2.65513H1.60973C1.88705 4.06428 2.38332 5.31026 3.01095 6.24475C2.25195 5.94808 1.65351 5.48826 1.23023 4.89493ZM10.7761 4.89493C10.3528 5.48826 9.75434 5.94808 8.99535 6.24475C9.63757 5.29543 10.1192 4.06428 10.3966 2.65513H11.4621C11.4621 3.10012 11.3745 4.03461 10.7761 4.89493Z" fill="#FFC54D"/>
</svg>
