<svg width="9" height="8" viewBox="0 0 9 8" fill="none" xmlns="http://www.w3.org/2000/svg">
<path fill-rule="evenodd" clip-rule="evenodd" d="M6.63819 0C7.10532 0 7.49932 0.333809 7.55725 0.778636L7.62949 1.33333H7.93912C8.60834 1.33333 9.11029 1.92094 8.97905 2.55076L8.88592 2.99763C8.7418 3.6892 8.19605 4.22147 7.50978 4.38898C7.04345 5.33787 6.10133 6.04009 4.96308 6.19169V7.11111H6.35237C6.60814 7.11111 6.81547 7.31009 6.81547 7.55556C6.81547 7.80102 6.60814 8 6.35237 8H2.64762C2.39186 8 2.18452 7.80102 2.18452 7.55556C2.18452 7.31009 2.39186 7.11111 2.64762 7.11111H4.03689V6.19169C2.89866 6.04009 1.95654 5.33787 1.4902 4.38898C0.803947 4.22147 0.258198 3.6892 0.114083 2.99763L0.0209541 2.55076C-0.110292 1.92094 0.391648 1.33333 1.06089 1.33333H1.3705L1.44275 0.778636C1.50068 0.333809 1.89469 0 2.36179 0H6.63819ZM7.93912 2.22222H7.74527L7.79913 2.63556C7.82265 2.81618 7.83002 2.99479 7.82237 3.17018C7.88213 3.08903 7.92861 2.99771 7.95847 2.89884L7.9777 2.8233L8.07082 2.37643C8.08537 2.30663 8.03851 2.24091 7.96979 2.22558L7.93912 2.22222ZM1.25473 2.22222H1.06089C0.976117 2.22222 0.912538 2.29665 0.929164 2.37643L1.02229 2.8233C1.04898 2.95142 1.10292 3.06874 1.17761 3.17018C1.16999 2.99479 1.17737 2.81618 1.20089 2.63556L1.25473 2.22222Z" fill="black" fill-opacity="0.55"/>
</svg>
