<svg width="13" height="13" viewBox="0 0 13 13" fill="none" xmlns="http://www.w3.org/2000/svg">
<path fill-rule="evenodd" clip-rule="evenodd" d="M13 6.5C13 10.0899 10.0899 13 6.5 13C2.91005 13 0 10.0899 0 6.5C0 2.91005 2.91005 0 6.5 0C10.0899 0 13 2.91005 13 6.5ZM3.9 5.85C3.72761 5.85 3.56228 5.91848 3.44038 6.04038C3.31848 6.16228 3.25 6.32761 3.25 6.5C3.25 6.67239 3.31848 6.83772 3.44038 6.95962C3.56228 7.08152 3.72761 7.15 3.9 7.15H9.1C9.27239 7.15 9.43772 7.08152 9.55962 6.95962C9.68152 6.83772 9.75 6.67239 9.75 6.5C9.75 6.32761 9.68152 6.16228 9.55962 6.04038C9.43772 5.91848 9.27239 5.85 9.1 5.85H3.9Z" fill="black"/>
</svg>
