<svg width="7" height="10" viewBox="0 0 7 10" fill="none" xmlns="http://www.w3.org/2000/svg">
<path d="M6.96124 2.37471C6.98267 2.41626 6.99551 2.46162 6.99902 2.50813C7.00252 2.55465 6.99662 2.60139 6.98165 2.64562C6.96668 2.68985 6.94296 2.73069 6.91185 2.76575C6.88074 2.8008 6.84288 2.82938 6.80049 2.8498C6.75809 2.87022 6.712 2.88208 6.66491 2.88468C6.61783 2.88728 6.57069 2.88057 6.52626 2.86495C6.48182 2.84933 6.44098 2.8251 6.40612 2.79369C6.37126 2.76228 6.34308 2.72431 6.32322 2.682C6.11047 2.25022 5.81073 1.866 5.44242 1.55294C5.32527 1.48831 5.19307 1.45511 5.05894 1.45661C4.9248 1.45812 4.7934 1.49429 4.67777 1.56153C4.56213 1.62877 4.46628 1.72475 4.39972 1.83994C4.33316 1.95513 4.29821 2.08554 4.29833 2.21821V2.6047C4.29816 2.68447 4.26605 2.76092 4.20903 2.81733C4.152 2.87373 4.0747 2.90549 3.99406 2.90566H2.40541C2.32476 2.90549 2.24746 2.87373 2.19044 2.81733C2.13341 2.76092 2.1013 2.68447 2.10113 2.6047V2.64906C2.10132 2.50114 2.05767 2.35642 1.97557 2.23278C1.95685 2.20951 1.9389 2.18563 1.92177 2.16119C1.84374 2.06909 1.74478 1.99656 1.63299 1.94952C1.52119 1.90249 1.39973 1.88228 1.27853 1.89056C1.15734 1.89884 1.03984 1.93537 0.935643 1.99716C0.831449 2.05895 0.743516 2.14425 0.679031 2.24609C0.645837 2.31976 0.588007 2.37987 0.515268 2.41632C0.442529 2.45277 0.359319 2.46333 0.279632 2.44623C0.199945 2.42913 0.128643 2.3854 0.0777183 2.32241C0.0267936 2.25943 -0.000647013 2.18101 1.15847e-05 2.10036V0.655772C-4.17389e-05 0.573937 0.0288158 0.494655 0.0815955 0.431633C0.134375 0.368611 0.207759 0.325809 0.289061 0.310628C0.370364 0.295447 0.454474 0.30884 0.526851 0.348493C0.599228 0.388145 0.655322 0.451564 0.685437 0.527786C0.74967 0.625973 0.835938 0.70818 0.93753 0.768013C1.03912 0.827847 1.1533 0.863694 1.27118 0.872766C1.38906 0.881839 1.50747 0.863893 1.6172 0.820323C1.72693 0.776753 1.82501 0.708735 1.90383 0.621558C1.93095 0.580766 1.96025 0.541428 1.99159 0.50371L1.99607 0.49674H1.99799C2.12842 0.341699 2.29177 0.216982 2.47645 0.131457C2.66112 0.0459324 2.86258 0.00169971 3.06649 0.00190429H3.08571C3.09805 0.000581297 3.11045 -5.33137e-05 3.12286 3.50165e-06C3.92356 -0.000246467 4.70818 0.22231 5.38705 0.642239C6.06592 1.06217 6.61165 1.66253 6.96188 2.37471H6.96124ZM3.99085 3.71476C3.99068 3.63499 3.95857 3.55854 3.90155 3.50214C3.84452 3.44573 3.76722 3.41397 3.68658 3.4138H2.58797C2.50738 3.41414 2.43018 3.44595 2.37319 3.50232C2.3162 3.55869 2.28403 3.63504 2.2837 3.71476V9.69904C2.28386 9.77881 2.31598 9.85526 2.373 9.91167C2.43003 9.96807 2.50733 9.99983 2.58797 10H3.68658C3.76722 9.99983 3.84452 9.96807 3.90155 9.91167C3.95857 9.85526 3.99068 9.77881 3.99085 9.69904V6.7069V3.71476Z" fill="black" fill-opacity="0.55"/>
</svg>
