<svg width="17" height="17" viewBox="0 0 17 17" fill="none" xmlns="http://www.w3.org/2000/svg">
<g clip-path="url(#clip0_232_1909)">
<path d="M16.6147 3.14731C16.3477 3.26575 16.0731 3.36572 15.7925 3.4469C16.1247 3.07124 16.3779 2.62924 16.5325 2.14558C16.5672 2.03717 16.5313 1.9185 16.4421 1.84758C16.3531 1.77662 16.2295 1.76812 16.1315 1.8262C15.5357 2.17958 14.8929 2.43355 14.2188 2.58203C13.5399 1.9186 12.6177 1.54102 11.6644 1.54102C9.65209 1.54102 8.01495 3.17812 8.01495 5.19036C8.01495 5.34883 8.02498 5.50645 8.04483 5.66187C5.54777 5.44263 3.22628 4.21528 1.63214 2.25979C1.57533 2.1901 1.48781 2.15252 1.39819 2.15972C1.30854 2.16673 1.22796 2.21729 1.18267 2.29502C0.859341 2.84981 0.688412 3.48435 0.688412 4.12999C0.688412 5.00933 1.00235 5.84363 1.55694 6.49557C1.3883 6.43716 1.22467 6.36418 1.06849 6.27749C0.984649 6.23081 0.882317 6.23154 0.799011 6.27928C0.715672 6.32706 0.66341 6.41488 0.661186 6.51091C0.660787 6.52708 0.660787 6.54325 0.660787 6.55965C0.660787 7.8722 1.36721 9.05392 2.44727 9.698C2.35447 9.68873 2.26177 9.67529 2.16963 9.65769C2.07464 9.63953 1.97699 9.67283 1.91294 9.74528C1.84879 9.81766 1.82754 9.91856 1.85712 10.0107C2.25689 11.2588 3.28615 12.1769 4.53043 12.4568C3.49841 13.1032 2.31825 13.4417 1.07934 13.4417C0.820826 13.4417 0.560846 13.4266 0.306412 13.3964C0.180008 13.3814 0.0591489 13.456 0.0160846 13.5763C-0.0269797 13.6965 0.0186744 13.8306 0.126186 13.8995C1.71777 14.92 3.55808 15.4594 5.44809 15.4594C9.16361 15.4594 11.488 13.7073 12.7835 12.2375C14.3991 10.4047 15.3256 7.97884 15.3256 5.58192C15.3256 5.48178 15.3241 5.38068 15.321 5.27987C15.9584 4.79966 16.5071 4.21847 16.9537 3.55049C17.0215 3.44906 17.0142 3.31495 16.9356 3.22159C16.8572 3.12805 16.7264 3.09784 16.6147 3.14731Z" fill="#1D98EC"/>
</g>
<defs>
<clipPath id="clip0_232_1909">
<rect width="17" height="17" fill="white"/>
</clipPath>
</defs>
</svg>
