<svg width="12" height="9" viewBox="0 0 12 9" fill="none" xmlns="http://www.w3.org/2000/svg">
<path d="M10.7716 2.24133C10.7768 2.33933 10.7786 2.43654 10.7786 2.53535C10.7851 3.38588 10.6083 4.22912 10.2586 5.01608C9.9089 5.80304 9.3932 6.51802 8.74147 7.11949C8.08975 7.72096 7.31499 8.19692 6.46222 8.51972C5.60944 8.84252 4.69565 9.00572 3.77394 8.99985C2.43585 9.00067 1.12576 8.64622 0 7.9788C0.195036 8.00004 0.391248 8.01077 0.587638 8.01093C1.69635 8.01246 2.77344 7.67012 3.64597 7.03889C3.13211 7.02981 2.63417 6.87278 2.22178 6.58975C1.80939 6.30672 1.50316 5.91184 1.34591 5.46032C1.49825 5.48746 1.65303 5.50118 1.80818 5.50129C2.02755 5.50098 2.24592 5.47397 2.45763 5.42096C1.90062 5.31685 1.39972 5.0383 1.03974 4.63249C0.67976 4.22667 0.482832 3.71852 0.482298 3.19409V3.16437C0.823979 3.34023 1.20645 3.43776 1.5975 3.44875C1.07614 3.12763 0.707151 2.6351 0.565766 2.07159C0.42438 1.50807 0.52125 0.916012 0.836622 0.416132C1.45462 1.11797 2.22574 1.69196 3.09986 2.1008C3.97398 2.50964 4.93155 2.74419 5.91033 2.78921C5.82618 2.45582 5.82469 2.1092 5.90599 1.7752C5.9873 1.44121 6.14928 1.12847 6.37986 0.860321C6.61045 0.592169 6.90368 0.375528 7.23767 0.226561C7.57166 0.0775943 7.9378 0.000148171 8.30876 8.86883e-07C8.64553 -0.000273786 8.97878 0.0632552 9.28786 0.186654C9.59694 0.310052 9.87528 0.490692 10.1056 0.717386C10.6571 0.617402 11.1859 0.43101 11.6692 0.166293C11.4854 0.69252 11.1005 1.13909 10.5862 1.42272C11.0742 1.36949 11.5508 1.24898 12 1.06523C11.67 1.52158 11.2543 1.91987 10.7725 2.24133H10.7716Z" fill="black" fill-opacity="0.55"/>
</svg>
