<svg width="11" height="11" viewBox="0 0 11 11" fill="none" xmlns="http://www.w3.org/2000/svg">
<g clip-path="url(#clip0_203_1752)">
<path d="M10.7507 2.03644C10.5779 2.11307 10.4002 2.17776 10.2187 2.23029C10.4336 1.98722 10.5975 1.70122 10.6975 1.38826C10.7199 1.31811 10.6967 1.24133 10.639 1.19543C10.5814 1.14952 10.5014 1.14402 10.438 1.1816C10.0525 1.41026 9.63655 1.57459 9.20042 1.67067C8.76109 1.24139 8.1644 0.99707 7.54755 0.99707C6.24547 0.99707 5.18614 2.05637 5.18614 3.35841C5.18614 3.46095 5.19263 3.56294 5.20548 3.66351C3.58973 3.52165 2.08759 2.72748 1.05609 1.46216C1.01933 1.41707 0.962699 1.39275 0.904713 1.39741C0.846705 1.40194 0.794563 1.43466 0.765258 1.48496C0.556044 1.84394 0.445443 2.25452 0.445443 2.67229C0.445443 3.24128 0.648577 3.78111 1.00743 4.20296C0.89831 4.16517 0.792436 4.11794 0.691374 4.06185C0.637126 4.03164 0.570911 4.03211 0.517007 4.06301C0.463082 4.09392 0.429265 4.15075 0.427826 4.21288C0.427568 4.22335 0.427568 4.23381 0.427568 4.24442C0.427568 5.09372 0.884668 5.85836 1.58353 6.27512C1.52348 6.26912 1.4635 6.26042 1.40388 6.24903C1.34241 6.23728 1.27923 6.25883 1.23778 6.30571C1.19628 6.35255 1.18253 6.41784 1.20167 6.47746C1.46034 7.28507 2.12633 7.87909 2.93145 8.0602C2.26368 8.47846 1.50004 8.69754 0.698399 8.69754C0.531122 8.69754 0.3629 8.68772 0.198266 8.66823C0.116476 8.6585 0.0382728 8.70679 0.0104077 8.78459C-0.0174575 8.86241 0.0120834 8.94916 0.0816496 8.99376C1.1115 9.65408 2.30229 10.0031 3.52524 10.0031C5.92939 10.0031 7.43338 8.86939 8.27168 7.91832C9.31704 6.73241 9.91656 5.16272 9.91656 3.61177C9.91656 3.54698 9.91557 3.48156 9.91357 3.41633C10.326 3.1056 10.6811 2.72954 10.97 2.29732C11.0139 2.23169 11.0092 2.14491 10.9583 2.0845C10.9076 2.02398 10.8229 2.00443 10.7507 2.03644Z" fill="#DF0053"/>
</g>
<defs>
<clipPath id="clip0_203_1752">
<rect width="11" height="11" fill="white"/>
</clipPath>
</defs>
</svg>
