<svg width="10" height="10" viewBox="0 0 10 10" fill="none" xmlns="http://www.w3.org/2000/svg">
<path d="M8.31969 2.42708L7.90251 0.898602L6.48491 1.28551L5.89437 0.0935059L1.18411 2.42708H0V9.90635H9.35689V7.89043H10V4.4089H9.35687V2.42708H8.31969ZM7.41054 1.75994L7.59263 2.42709H7.05048H6.26772H4.96611L6.11268 2.11415L6.8022 1.92596L7.41054 1.75994ZM8.65546 9.20495H0.701403V5.38487V4.05292V3.94737V3.22754V3.1285H1.06429H1.34833H2.39623H6.61522H7.39799H7.78407H8.14759H8.51112H8.65546V3.65735V4.40889H8.49706H8.13353H7.22738H5.64741H5.07786V4.69106V5.47382V5.56416V5.92769V6.29122V7.89041H8.65548V9.20493H8.65546V9.20495ZM9.2986 7.18903H9.00615H8.65545H5.77926V6.09981V5.73628V5.37275V5.12634V5.1103H5.81164H6.74085H8.07278H8.65548H9.00619H9.05203H9.2986V7.18903ZM5.57725 1.03337L5.79541 1.47369L3.33065 2.1464L5.57725 1.03337Z" fill="#FF5AEE"/>
<path d="M6.33594 5.823V5.94787V6.50977H7.02273V5.823H6.79342H6.33594Z" fill="#FF5AEE"/>
</svg>
