<svg width="17" height="14" viewBox="0 0 17 14" fill="none" xmlns="http://www.w3.org/2000/svg">
<path fill-rule="evenodd" clip-rule="evenodd" d="M1.41859 4.08117C1.41993 5.69723 1.4222 8.18314 1.42847 11.9015C1.42928 12.2875 1.74617 12.6 2.1368 12.6H13.4731C13.8643 12.6 14.1814 12.2866 14.1814 11.9V10.5H13.4583C12.6759 10.5 12.0417 9.87322 12.0417 9.1V7.7C12.0417 6.92678 12.6759 6.3 13.4583 6.3H14.1814V4.9C14.1814 4.5134 13.8643 4.2 13.4731 4.2H2.125C1.87735 4.2 1.6396 4.15813 1.41859 4.08117ZM1.41667 2.10119C1.41732 2.48724 1.7342 2.8 2.125 2.8H4.25H12.0505L12.0594 2.1C12.0594 1.7134 11.7423 1.4 11.351 1.4H2.125C1.7338 1.4 1.41667 1.7134 1.41667 2.1V2.1012V2.10119ZM15.5981 10.4999V11.9C15.5981 13.0598 14.6467 14 13.4731 14H2.1368C0.96492 14 0.0142427 13.0625 0.0118022 11.9041C0.00671876 8.8879 0.00641291 8.70646 0.00353713 7H0V2.1C0 0.940205 0.951398 0 2.125 0H11.351C12.5246 0 13.476 0.940205 13.476 2.10874L13.4673 2.8H13.4731C14.6467 2.8 15.5981 3.74021 15.5981 4.9V6.30007C16.3737 6.30791 17 6.93168 17 7.7V9.1C17 9.86832 16.3737 10.4921 15.5981 10.4999ZM13.4583 7.7V9.1H15.5833V7.7H13.4583Z" fill="white"/>
</svg>
