<svg width="10" height="9" viewBox="0 0 10 9" fill="none" xmlns="http://www.w3.org/2000/svg">
<path fill-rule="evenodd" clip-rule="evenodd" d="M7.37577 0C7.8948 0 8.33258 0.375535 8.39695 0.875965L8.47722 1.5H8.82125C9.56482 1.5 10.1225 2.16106 9.97672 2.8696L9.87324 3.37233C9.71312 4.15035 9.10672 4.74915 8.3442 4.9376C7.82605 6.0051 6.77925 6.7951 5.51454 6.96565V8H7.05819C7.34238 8 7.57274 8.22385 7.57274 8.5C7.57274 8.77615 7.34238 9 7.05819 9H2.9418C2.65762 9 2.42725 8.77615 2.42725 8.5C2.42725 8.22385 2.65762 8 2.9418 8H4.48544V6.96565C3.22074 6.7951 2.17393 6.0051 1.65578 4.9376C0.893274 4.74915 0.286887 4.15035 0.126758 3.37233L0.0232824 2.8696C-0.122546 2.16106 0.435165 1.5 1.17876 1.5H1.52278L1.60305 0.875965C1.66743 0.375535 2.10521 0 2.62421 0H7.37577ZM8.82125 2.5H8.60585L8.6657 2.96501C8.69184 3.1682 8.70002 3.36914 8.69153 3.56645C8.75792 3.47516 8.80957 3.37243 8.84274 3.26119L8.86411 3.17621L8.96758 2.67348C8.98375 2.59495 8.93168 2.52103 8.85533 2.50377L8.82125 2.5ZM1.39414 2.5H1.17876C1.08457 2.5 1.01393 2.58373 1.0324 2.67348L1.13587 3.17621C1.16554 3.32035 1.22547 3.45233 1.30846 3.56645C1.29999 3.36914 1.30819 3.1682 1.33432 2.96501L1.39414 2.5Z" fill="black"/>
</svg>
